<svg xmlns="http://www.w3.org/2000/svg" width="109" height="109" viewBox="0 0 109 109">
  <path id="Subtraction_13" data-name="Subtraction 13" d="M54,108a54.4,54.4,0,0,1-10.883-1.1,53.7,53.7,0,0,1-19.309-8.125A54.158,54.158,0,0,1,4.244,75.019,53.726,53.726,0,0,1,1.1,64.883a54.525,54.525,0,0,1,0-21.766A53.7,53.7,0,0,1,9.222,23.808,54.158,54.158,0,0,1,32.981,4.244,53.727,53.727,0,0,1,43.117,1.1a54.525,54.525,0,0,1,21.766,0A53.7,53.7,0,0,1,84.192,9.222a54.158,54.158,0,0,1,19.564,23.758A53.727,53.727,0,0,1,106.9,43.117a54.526,54.526,0,0,1,0,21.766,53.7,53.7,0,0,1-8.125,19.309,54.158,54.158,0,0,1-23.758,19.564A53.727,53.727,0,0,1,64.883,106.9,54.4,54.4,0,0,1,54,108ZM43.731,85.61h0A28.656,28.656,0,0,0,48.883,87l0,5.1,9.427,0,0-5.1a28.552,28.552,0,0,0,5.153-1.381l2.554,4.419,8.165-4.713-2.554-4.419a27.486,27.486,0,0,0,3.766-3.783l4.428,2.557,4.715-8.17L80.11,68.953A28.7,28.7,0,0,0,81.5,63.8l5.1,0V58.314H75.033c.006.224.009.434.009.622a21.65,21.65,0,0,1-.437,4.334,21.384,21.384,0,0,1-3.235,7.69,21.556,21.556,0,0,1-9.459,7.792,21.383,21.383,0,0,1-4.035,1.253,21.691,21.691,0,0,1-8.666,0,21.379,21.379,0,0,1-7.687-3.236,21.572,21.572,0,0,1-7.789-9.462,21.39,21.39,0,0,1-1.252-4.037,21.65,21.65,0,0,1-.437-4.334c0-.209,0-.418.009-.622H20.586V63.8l5.1,0a28.529,28.529,0,0,0,1.381,5.154l-4.418,2.555,4.712,8.168,4.418-2.555a27.461,27.461,0,0,0,3.782,3.767l-2.557,4.43,8.167,4.717,2.556-4.429ZM71.543,40.456c-.164.117-.332.244-.5.377a15.293,15.293,0,0,0-2.127,2.05c-.324.379-.637.781-.93,1.2.29.411.568.845.825,1.289a17.863,17.863,0,0,1,1.325,2.853,18.756,18.756,0,0,1,.837,3.152,19.645,19.645,0,0,1,.292,3.385H93.451a19.724,19.724,0,0,0-.292-3.385,18.814,18.814,0,0,0-.838-3.152A17.832,17.832,0,0,0,91,45.369a16.638,16.638,0,0,0-1.755-2.486,15.2,15.2,0,0,0-2.127-2.05c-.193-.153-.4-.3-.6-.451A9.461,9.461,0,0,1,76.8,43.843a9.372,9.372,0,0,1-2.016-.733,9.469,9.469,0,0,1-3.24-2.654Zm-25.421,0c-.164.117-.332.244-.5.377a15.293,15.293,0,0,0-2.127,2.05c-.324.379-.637.781-.93,1.2.29.411.568.845.825,1.289a17.819,17.819,0,0,1,1.325,2.853,18.756,18.756,0,0,1,.837,3.152,19.6,19.6,0,0,1,.292,3.385H68.03a19.724,19.724,0,0,0-.292-3.385,18.815,18.815,0,0,0-.838-3.152,17.832,17.832,0,0,0-1.325-2.853,16.637,16.637,0,0,0-1.755-2.486,15.2,15.2,0,0,0-2.127-2.05c-.193-.153-.4-.3-.6-.451a9.48,9.48,0,0,1-3.255,2.707,9.446,9.446,0,0,1-8.474.021,9.469,9.469,0,0,1-3.24-2.654Zm-25.435-.2h0c-.146.106-.293.217-.437.331a15.14,15.14,0,0,0-2.116,2.04A16.538,16.538,0,0,0,16.387,45.1a17.794,17.794,0,0,0-1.319,2.841,18.755,18.755,0,0,0-.834,3.139,19.6,19.6,0,0,0-.291,3.294H42.532a19.632,19.632,0,0,0-.291-3.294,18.75,18.75,0,0,0-.834-3.139A17.788,17.788,0,0,0,40.088,45.1a16.559,16.559,0,0,0-1.747-2.474,15.163,15.163,0,0,0-2.116-2.04c-.181-.143-.363-.28-.54-.406a9.561,9.561,0,0,1-3.236,2.67A9.463,9.463,0,0,1,30.4,43.6a9.6,9.6,0,0,1-4.46.006,9.488,9.488,0,0,1-3.818-1.9,9.577,9.577,0,0,1-1.434-1.458ZM78.728,24.882a7.78,7.78,0,1,0,5.5,2.279A7.729,7.729,0,0,0,78.728,24.882Zm-25.113,0a7.78,7.78,0,1,0,5.5,2.279A7.729,7.729,0,0,0,53.615,24.882Zm-25.112,0A7.78,7.78,0,1,0,34,27.16,7.729,7.729,0,0,0,28.5,24.882Z" transform="translate(0.5 0.5)" fill="#8a0ff2" stroke="rgba(0,0,0,0)" stroke-miterlimit="10" stroke-width="1"/>
</svg>
