<svg id="Layer_1" data-name="Layer 1" xmlns="http://www.w3.org/2000/svg" viewBox="0 0 1600 918.78"><defs><style>.cls-1{fill:#e8e8e8;}.cls-2,.cls-9{fill:#ec615b;}.cls-2,.cls-3,.cls-5,.cls-6{stroke:#000;}.cls-2,.cls-3,.cls-5,.cls-6,.cls-8{stroke-miterlimit:10;}.cls-2,.cls-3{stroke-width:6px;}.cls-3,.cls-4,.cls-6{fill:#fff;}.cls-5{fill:none;}.cls-6,.cls-8{stroke-width:3px;}.cls-7{fill:#ffb808;}.cls-8{fill:#161616;stroke:#161616;}.cls-10,.cls-11,.cls-12,.cls-13,.cls-14,.cls-15,.cls-17,.cls-19{fill:#3d3d3d;isolation:isolate;}.cls-10{opacity:0.09;}.cls-11{opacity:0.12;}.cls-12{opacity:0.14;}.cls-13{opacity:0.11;}.cls-14{opacity:0.13;}.cls-15{opacity:0.15;}.cls-16{fill:#2469ce;}.cls-17{opacity:0.07;}.cls-18{fill:#5222d0;}.cls-19{opacity:0.19;}</style></defs><title>community</title><g id="background"><path class="cls-1" d="M1361.6,785.26c-6.8-8.5-11.9-18.1-16.2-28-2.1-4.9-4.1-10-6-15-.9-2.4-1.9-4.7-2.6-7.1s-1.1-3.8.1-6.2c0-1.7.7-2.4,2-2.2,1.1-.3,1.8.2,2.2,1.5,1-.1,2-.3,2.9-.4a247.58,247.58,0,0,1-11.6-55.7,257.37,257.37,0,0,1-.9-27.8c.1-4.3.3-8.6.7-13,.1-1.7-.1-6.5.9-7.9,1.1-.3,2.1-.6,3.2-.8,1.8-1.5,3.2-1.5,4.1.1a13.4,13.4,0,0,1,2.5,3.7c18.3,30.4,30.5,64.7,36.4,99.6a287.8,287.8,0,0,1,3.8,60.8c-.1,1.9,2.9,1.9,3,0a296.71,296.71,0,0,0-19.8-119c-3.7-9.4-7.8-18.6-12.4-27.6-2.1-4.2-4.4-8.3-6.7-12.3-1.9-3.3-3.8-7.3-7-9.5-6.2-4.2-9.8,1.8-10.5,7.3a207,207,0,0,0-1.2,31.5,250.1,250.1,0,0,0,12.5,71.3c.5,1.6,3,1.4,2.9-.4,0-4-4.5-5.7-7.9-4-6,2.9-2.6,11.2-1,15.6,6.2,16.8,12.9,33.4,24.2,47.5a1.56,1.56,0,1,0,2.4-2Z"/><path class="cls-1" d="M1379.2,710.46a253,253,0,0,1,5.4-39.6c1.4-6.1,2.9-12.2,4.8-18.2.9-3,1.9-6,2.9-8.9.5-1.5,1-3,1.6-4.4a13.36,13.36,0,0,1,.7-1.8c.4-2.1,1.8-3.3,4.1-3.7-.2,1.7,2.5,2,2.9.4,2-6.6,18.2-49.1,28.1-41.8,2.9,2.1,3.7,7,4.2,10.3.8,4.6,1.5,9.3,2,13.9.9,7.9,1.5,15.8,1.7,23.8a273.78,273.78,0,0,1-37.6,146.8,1.5,1.5,0,0,0,2.6,1.5,279.32,279.32,0,0,0,37.4-161,264.66,264.66,0,0,0-3.3-26.6c-.9-4.8-3.1-11.9-8.8-12.8-7.5-1.2-13.3,11.2-16.3,16.2a128.6,128.6,0,0,0-12.8,28.9c1,.1,2,.3,2.9.4.6-4.8-5.4-5.1-7.8-2-1.8,2.3-2.6,5.7-3.5,8.4-1.7,4.7-3.2,9.5-4.6,14.3a251.62,251.62,0,0,0-9.5,55.8c-.2,2,2.8,2,2.9.1Z"/><path class="cls-1" d="M1332.2,622.36a528.21,528.21,0,0,1,40.5,160.1c.2,1.9,3.2,1.9,3,0a535.78,535.78,0,0,0-40.9-161.7c-.8-1.7-3.4-.1-2.6,1.6Z"/><path class="cls-1" d="M1331.6,688.26a136.16,136.16,0,0,1,28.7,19.3c1.4,1.3,3.6-.8,2.1-2.1a143,143,0,0,0-29.4-19.8c-1.6-.8-3.2,1.8-1.4,2.6Z"/><path class="cls-1" d="M1359.4,659a70.75,70.75,0,0,0-6.2,17.4c-.4,1.9,2.5,2.7,2.9.8a70.62,70.62,0,0,1,5.9-16.7c.9-1.7-1.7-3.2-2.6-1.5Z"/><path class="cls-1" d="M1424.8,594.76c-6.5,58.1-13.6,118.1-41.9,170.3-.9,1.7,1.7,3.2,2.6,1.5,28.6-52.7,35.7-113.1,42.3-171.8.2-1.9-2.8-1.9-3,0Z"/><path class="cls-1" d="M1387.4,651.66a290.75,290.75,0,0,1,17.8,58.3c.4,1.9,3.3,1.1,2.9-.8a302.67,302.67,0,0,0-18.1-59c-.8-1.8-3.3-.3-2.6,1.5Z"/><path class="cls-1" d="M1417.5,666.76c7.5-9.5,15-19,22.5-28.4,1.2-1.5-.9-3.6-2.1-2.1-7.5,9.5-15,19-22.5,28.4-1.2,1.4.9,3.6,2.1,2.1Z"/><path class="cls-1" d="M174.8,772c-6.5-7-13.1-14.2-18.4-22.2a79.72,79.72,0,0,1-6.6-12.2c-1-2.4-5.7-15.2.8-12.6,1.6.6,2.3-1.5,1.5-2.5-6.6-8.4-11-18.2-14.8-28.1-3.6-9.4-7.1-18.9-10.4-28.4-3.6-10.4-6.7-21.1-7.9-32-.9-8.6-1.8-20.4,4.4-27.5,9.1-10.3,18.3,6.7,22.6,13.1,5.8,8.6,11.5,17.4,17,26.2,10.9,17.9,20.8,36.5,28.1,56.3,8.3,22.6,12.9,46.5,11.8,70.6-.1,1.9,2.9,1.9,3,0,2.2-48.8-18.7-94.3-44.2-134.7-6.3-9.9-12.6-19.9-19.5-29.4-3.9-5.3-10.1-10.8-17.1-7.3-6.4,3.1-8.8,11.4-9.4,17.9-1.1,11.8,1.2,23.8,4.4,35.1,3.6,12.8,8.5,25.2,13.1,37.6,4.3,11.6,9.1,22.9,16.8,32.7.5-.8,1-1.7,1.5-2.5a7,7,0,0,0-7.1.9,1.46,1.46,0,0,0-.7,1.3c2.2,20.2,15.9,35.7,29.1,49.9,1.2,1.4,3.3-.7,2-2.2Z"/><path class="cls-1" d="M183,676.86a174.21,174.21,0,0,1,10.8-82.4,23.35,23.35,0,0,0-2.5.7,21.33,21.33,0,0,1,6.4,10,1.51,1.51,0,0,0,2.9,0,266,266,0,0,1,29.7-67,25.12,25.12,0,0,1-2.7-.4,214.72,214.72,0,0,1,14.3,62.3c1.4,19.2,1.9,41.3-9.8,57.6a1.47,1.47,0,0,0,.9,2.2c9,2.1,6.3,16.3,5.5,22.7a306.33,306.33,0,0,1-5.3,31.6,326.62,326.62,0,0,1-18.9,58.7c-.8,1.8,1.8,3.3,2.6,1.5a329,329,0,0,0,21.1-68.5c2-10.8,4.3-22.2,4.5-33.2.1-6.3-1.5-14.2-8.6-15.8.3.7.6,1.5.9,2.2,11.7-16.3,11.5-38.1,10.3-57.3a215.31,215.31,0,0,0-14.5-64.9,1.51,1.51,0,0,0-2.7-.4,270,270,0,0,0-30,67.7h2.9a24.69,24.69,0,0,0-7.2-11.3,1.51,1.51,0,0,0-2.5.7,176.29,176.29,0,0,0-10.9,83.2c0,2,3,2,2.8.1Z"/><path class="cls-1" d="M124.5,606c13.9,27.5,28.1,54.9,41.4,82.7,13,27.4,24.5,55.7,30.7,85.5.4,1.9,3.3,1.1,2.9-.8-6.2-29.5-17.4-57.4-30.3-84.6-13.4-28.4-28-56.3-42.2-84.4-.8-1.6-3.4-.1-2.5,1.6Z"/><path class="cls-1" d="M228.2,542c-2.1,29.7-11.3,58.1-18.1,86.9a617.11,617.11,0,0,0-14.1,87.6c-.2,1.9,2.8,1.9,3,0A614.42,614.42,0,0,1,213.9,626c6.8-27.8,15.2-55.3,17.3-84,.1-2-2.9-2-3,0Z"/><path class="cls-1" d="M122.9,663.26a128.92,128.92,0,0,1,41.2,23.1c1.5,1.2,3.6-.9,2.1-2.1a136.18,136.18,0,0,0-42.5-23.9c-1.9-.7-2.7,2.2-.8,2.9Z"/><path class="cls-1" d="M190.4,596.86A314.7,314.7,0,0,0,205.3,650c.7,1.8,3.6,1,2.9-.8a327.16,327.16,0,0,1-14.9-53.1c-.4-1.9-3.2-1.1-2.9.8Z"/><path class="cls-1" d="M201.2,723.06c10.8-14.2,21.9-28.5,37.7-37.4,1.7-.9.2-3.5-1.5-2.6-16.2,9.2-27.7,23.9-38.8,38.5-1.1,1.5,1.5,3,2.6,1.5Z"/><path d="M1241.2,790.66h252.4c3.9,0,3.9-6,0-6H1241.2c-3.9,0-3.9,6,0,6Z"/><path d="M327.7,770.66h-198c-3.9,0-3.9,6,0,6h198c3.8,0,3.8-6,0-6Z"/><path d="M999.9,839.46h351.5c3.9,0,3.9-6,0-6H999.9c-3.8,0-3.9,6,0,6Z"/></g><g id="banner"><path class="cls-2" d="M1215.8,792.26l-873-17.4c-52.1-1-88.5-51.9-72.7-101.5L449.8,108a77.93,77.93,0,0,1,73.7-54.3q403.95-2.85,807.9-5.8c49.2-.4,86.5,44.5,77,92.8l-114.7,588.6A77.57,77.57,0,0,1,1215.8,792.26Z"/><path class="cls-3" d="M1210.2,787.36q-436.5-8.25-873-16.4c-52.1-1-88.5-49-72.7-95.8l179.7-533.7c10.2-30.3,40-51,73.7-51.3q404-2.7,807.9-5.5c49.2-.3,86.5,42,77,87.6L1288.1,728C1281,763,1248.1,788.06,1210.2,787.36Z"/><path d="M1284.8,742.86a78.69,78.69,0,0,1-50.4,43.2,1.5,1.5,0,0,0,.8,2.9,81.79,81.79,0,0,0,52.2-44.6c.7-1.7-1.8-3.3-2.6-1.5Z"/><path d="M531.2,75.76c-3-.3-4.1-3.5-3.3-6.1,1.1-3.3,4.3-4,7.3-2.5a4.87,4.87,0,0,1,2.3,6,4.81,4.81,0,0,1-6.3,2.4c-1.8-.7-2.6,2.2-.8,2.9a7.84,7.84,0,0,0,10.1-4.6,8,8,0,0,0-5.6-10c-4.7-1.4-8.8.8-10,5.7a7.37,7.37,0,0,0,6.3,9.2c1.9.2,1.9-2.8,0-3Z"/><path class="cls-4" d="M527.7,73.36c1.2,3.1,5.6,4.1,8.2,2.2a5.3,5.3,0,0,0-4.1-9.4A5.54,5.54,0,0,0,527.7,73.36Z"/><path d="M565,74.86c-3-.3-4.1-3.5-3.3-6.1,1.1-3.3,4.3-4,7.3-2.5a4.87,4.87,0,0,1,2.3,6,4.81,4.81,0,0,1-6.3,2.4c-1.8-.7-2.6,2.2-.8,2.9A7.84,7.84,0,0,0,574.3,73a8,8,0,0,0-5.6-10c-4.7-1.4-8.8.8-10,5.7a7.37,7.37,0,0,0,6.3,9.2c1.9.2,1.9-2.8,0-3Z"/><path class="cls-5" d="M561.5,72.46c1.2,3.1,5.6,4.1,8.2,2.2a5.3,5.3,0,0,0-4.1-9.4A5.54,5.54,0,0,0,561.5,72.46Z"/><path d="M529.2,67.16a65.55,65.55,0,0,0,4.9,9c1,1.6,3.6.1,2.6-1.5a97.54,97.54,0,0,1-4.9-9c-.8-1.7-3.4-.2-2.6,1.5Z"/><path d="M529.5,76.16c1.4-1.2,2.7-2.5,4.1-3.7a20.17,20.17,0,0,1,3.9-3.2c1.7-.9.2-3.5-1.5-2.6a20.64,20.64,0,0,0-4,3.3c-1.5,1.4-3.1,2.8-4.6,4.2-1.4,1.2.7,3.3,2.1,2Z"/><path class="cls-6" d="M900.9,143.66c-8.9,28.6-17.9,57.3-26.8,85.9a27.85,27.85,0,0,0,26.2,36.1q186.15,2.25,372.2,4.4a27.83,27.83,0,0,0,27.7-23c5.3-30.4,10.7-60.8,16-91.2a27.8,27.8,0,0,0-27.4-32.6l-361.4.9A27.79,27.79,0,0,0,900.9,143.66Z"/><path class="cls-6" d="M424.7,542.36l-51.9,149.1c-10.7,30.8,14.7,62.2,50.7,62.6q360.3,3.75,720.7,7.6c26.4.3,49.1-16.6,53.6-39.9q15.6-79.05,31.1-158.2c5.8-29.6-19.6-56.6-53.1-56.6l-699.9,1.5C452.4,508.56,431.7,522.26,424.7,542.36Z"/><path class="cls-1" d="M938.5,315l-48.3,144.6c-.6,1.8,2.3,2.6,2.9.8l48.3-144.6c.6-1.9-2.3-2.7-2.9-.8Z"/><path class="cls-1" d="M940.4,315.26c41.8-2.2,83.8-5.6,125.7-5.6,41.7,0,83.3,3.6,124.8,7.2,1.9.2,1.9-2.8,0-3-41.5-3.6-83.1-7.1-124.8-7.2-41.9,0-83.9,3.4-125.7,5.6-1.9.1-2,3.1,0,3Z"/><path class="cls-1" d="M1190.4,316.76q-16.8,71.7-33.7,143.3c-.4,1.9,2.5,2.7,2.9.8q16.8-71.7,33.7-143.3c.4-1.8-2.5-2.6-2.9-.8Z"/><path class="cls-1" d="M892,464.76q102.9-5.55,206-2.5c19.6.6,39.1,1.4,58.7,2.5,1.9.1,1.9-2.9,0-3q-102.9-5.7-206-2.5c-19.6.6-39.1,1.4-58.7,2.5-1.9.1-2,3.1,0,3Z"/><path class="cls-1" d="M1025.2,459.66c42.8-22.3,91.7-25.6,139-28.5,1.9-.1,1.9-3.1,0-3-47.8,3-97.2,6.4-140.5,28.9-1.8.9-.3,3.5,1.5,2.6Z"/><path class="cls-1" d="M1093.5,364.46a353.58,353.58,0,0,1,7.2,69.6,1.5,1.5,0,0,0,3,0,369.66,369.66,0,0,0-7.3-70.4c-.4-1.9-3.3-1.1-2.9.8Z"/><path class="cls-1" d="M1092.4,364c-6.1,8.9-12.1,17.9-18.2,26.8.9.3,1.9.5,2.8.8a39,39,0,0,1,6.9-24.8c1.1-1.6-1.5-3.1-2.6-1.5a41.85,41.85,0,0,0-7.4,26.3,1.53,1.53,0,0,0,2.8.8c6.1-8.9,12.1-17.9,18.2-26.8,1.2-1.7-1.4-3.2-2.5-1.6Z"/><path class="cls-1" d="M1082.3,363.16a22.39,22.39,0,0,0-10.5-2c-2.2.1-11.1,2.8-9.8-.5.5-1.3,3.3-3,4.4-3.9a48.83,48.83,0,0,1,6.6-4.6,25.5,25.5,0,0,1,16.6-3.4c1.9.3,2.7-2.6.8-2.9-11.6-1.8-23.7,4.5-31.2,13.2-2,2.3-1.7,5.5,1.6,6.5,1.8.5,3.8-.2,5.5-.6,4.9-1.1,9.7-1.5,14.5.6,1.7,1,3.2-1.6,1.5-2.4Z"/><path class="cls-1" d="M1092.3,345.66a32.24,32.24,0,0,1,20.6-18.4c-.5-.8-1-1.7-1.5-2.5a29.51,29.51,0,0,0-6.1,14.7c-.2,1.9,2.8,1.9,3,0a26.1,26.1,0,0,1,5.2-12.6c.8-1.1.1-3-1.5-2.5a35.36,35.36,0,0,0-22.7,20.5c-.6,1.8,2.3,2.6,3,.8Z"/><path class="cls-1" d="M1107.5,341.26a25.14,25.14,0,0,1,24.9-.3v-2.6a125,125,0,0,0-18,10.6c-1.6,1.1-.1,3.7,1.5,2.6a125,125,0,0,1,18-10.6,1.54,1.54,0,0,0,0-2.6,27.82,27.82,0,0,0-27.9.3,1.5,1.5,0,0,0,1.5,2.6Z"/><path class="cls-1" d="M1113.3,351.76c6.5,3.6,12.8,9.5,11,17.7a25.12,25.12,0,0,0,2.7-.4,21.55,21.55,0,0,0-19.3-10.2c-1.9.1-1.9,3.1,0,3a18.34,18.34,0,0,1,16.7,8.7c.6,1,2.5,1,2.7-.4,2-9.5-4.6-16.8-12.4-21.1-1.6-.8-3.1,1.8-1.4,2.7Z"/><path class="cls-1" d="M1105.1,361.36a300.44,300.44,0,0,1,5,72.7c-.1,1.9,2.9,1.9,3,0a302,302,0,0,0-5.1-73.5c-.4-1.9-3.3-1.1-2.9.8Z"/><path class="cls-1" d="M1101.8,408.46a17.82,17.82,0,0,0,9.4-1.5c1.8-.8.2-3.4-1.5-2.6a13.46,13.46,0,0,1-7.9,1.1c-1.9-.3-1.9,2.7,0,3Z"/><path class="cls-1" d="M905,423.86c16.4,1,33,1.3,49.3,3.2,8,.9,15.7,3.3,23.6,4.5,7.7,1.1,15.2,0,22.9-1.4,33.7-5.9,67.6-2.7,101.3.9,1.9.2,1.9-2.8,0-3-32.6-3.5-65.7-6.9-98.3-1.5-9.2,1.5-17.9,3.3-27.2,1.7-7.5-1.3-14.7-3.3-22.2-4.2-16.3-1.9-32.9-2.2-49.3-3.2-2-.2-2,2.8-.1,3Z"/><path class="cls-1" d="M1098.3,387.76c.4,1.7,2.1,2.1,3.7,1.8a75.06,75.06,0,0,0,9.3-2.5,1.5,1.5,0,0,0-.8-2.9c-1.8.5-3.6,1-5.4,1.4a23.35,23.35,0,0,0-2.5.7l-1.2.3c-.7-.1-.7,0-.2.3-.4-1.8-3.3-1-2.9.9Z"/><path class="cls-1" d="M971.6,349.56c-9.9-3.2,3-20.2,9.9-12.6,2.5,2.7,2.4,7.4.1,10.2a8.27,8.27,0,0,1-10.6,1.7,1.5,1.5,0,0,0-1.5,2.6c5.1,2.9,12,1.8,15.2-3.3,2.9-4.7,2.1-12-3-14.9-11.1-6.2-24.4,14.9-10.8,19.3,1.8.5,2.6-2.4.7-3Z"/><path class="cls-1" d="M1202.8,325.46a722.12,722.12,0,0,1,96.1,11.5c1.9.4,2.7-2.5.8-2.9a716,716,0,0,0-96.9-11.7c-1.9,0-1.9,3,0,3.1Z"/><path class="cls-1" d="M1202.3,334.16c30.8,3.3,61.7,6.8,92.4,10.5,1.9.2,1.9-2.8,0-3q-46.2-5.55-92.4-10.5c-1.9-.2-1.9,2.8,0,3Z"/><path class="cls-1" d="M1201.3,343.16a423.18,423.18,0,0,0,56.1,5.7c1.9.1,1.9-2.9,0-3a428.13,428.13,0,0,1-55.3-5.6c-1.9-.3-2.7,2.6-.8,2.9Z"/><path class="cls-1" d="M1190.1,397.06q38,5.4,76.1,9c1.9.2,1.9-2.8,0-3q-37.8-3.6-75.3-8.9c-1.9-.3-2.7,2.6-.8,2.9Z"/><path class="cls-1" d="M1188.2,405.66q30.15,5.25,60.4,8.8c1.9.2,1.9-2.8,0-3-20-2.3-39.8-5.2-59.6-8.7-1.9-.4-2.7,2.5-.8,2.9Z"/><path class="cls-1" d="M1186.1,418.36a575.79,575.79,0,0,0,76.2,10c1.9.1,1.9-2.9,0-3a598.38,598.38,0,0,1-75.4-9.9c-1.9-.4-2.7,2.5-.8,2.9Z"/><path class="cls-1" d="M468,547.06c46,2.3,92.2-.1,138.2-.8s91.9-.9,137.9-.8c92.3.2,184.5,1.9,276.8,4,52,1.2,103.9,2.6,155.9,3.9,1.9.1,1.9-2.9,0-3-92.2-2.4-184.5-4.9-276.8-6.4s-184.5-2.2-276.8-1c-51.7.6-103.6,3.7-155.2,1a1.55,1.55,0,0,0,0,3.1Z"/><path class="cls-7" d="M466.2,194.86c6,.9,10.2-3.2,22.1-12,17.9-13.3,21.7-13.7,24.4-13.5,1.3.1,3.7.5,15,9,16.5,12.4,17.5,16.2,22.9,16.5,9.8.4,11.2-12,22.9-13.1,10.6-1,13.9,8.7,27,8.2,10.1-.3,16-6.5,16.9-5.2,1.1,1.7-8.4,14.8-22.1,16.9-10.1,1.5-12.3-4.4-22.1-3-13.6,2-16.2,14.4-26.2,13.5-5.9-.6-6.7-5-16.9-12-5.4-3.7-14.8-10.1-25.1-10.9-18.9-1.4-28.7,16.9-40.1,11.6-5.5-2.5-8.6-9.3-7.9-10.1C457.5,190,461,194.06,466.2,194.86Z"/><path class="cls-1" d="M934.7,143.56q-9.15,41.55-22.4,82.1c-.6,1.8,2.3,2.6,2.9.8q13.2-40.5,22.4-82.1c.4-1.9-2.5-2.7-2.9-.8Z"/><path class="cls-1" d="M914.1,228c10.3,1.2,20.6.7,31,.5,10.8-.3,21.6-.5,32.5-.8,21.6-.5,43.3-1.1,64.9-1.6a1.5,1.5,0,0,0,0-3c-21.6.5-43.3,1.1-64.9,1.6-10.5.3-21,.5-31.5.8-10.7.3-21.3.8-32-.4-1.9-.3-1.9,2.7,0,2.9Z"/><path class="cls-1" d="M951.3,171.46q-5.7,26.7-9.7,53.7c-.3,1.9,2.6,2.7,2.9.8q4.05-27,9.7-53.7c.4-1.9-2.5-2.7-2.9-.8Z"/><path class="cls-1" d="M953.6,173.06a117.9,117.9,0,0,1,15.7,1.8c-.3-.6-.7-1.2-1-1.8q-7,25.35-12,51.2c-.4,1.9,2.5,2.7,2.9.8q4.95-25.8,12-51.2a1.43,1.43,0,0,0-1-1.8,130.22,130.22,0,0,0-16.5-1.9c-2.1-.2-2.1,2.8-.1,2.9Z"/><path class="cls-1" d="M979.4,188.46c-1.5,12.2-3.5,24.2-6,36.2-.4,1.9,2.5,2.7,2.9.8,2.6-12.2,4.6-24.6,6.1-37,.2-1.9-2.8-1.9-3,0Z"/><path class="cls-1" d="M980.9,188.66a158.86,158.86,0,0,1,16.9.3,23.07,23.07,0,0,1-1.4-1.9c-2.2,11.9-4.1,23.8-5.7,35.8-.3,1.9,2.7,1.9,3,0,1.6-11.7,3.4-23.3,5.6-35a1.52,1.52,0,0,0-1.4-1.9c-5.6-.4-11.3-.4-16.9-.3a1.5,1.5,0,1,0-.1,3Z"/><path class="cls-1" d="M1015.9,161.26c-3.5,20.9-7.6,41.8-12.1,62.5-.4,1.9,2.5,2.7,2.9.8,4.5-20.7,8.6-41.6,12.1-62.5.4-1.9-2.5-2.7-2.9-.8Z"/><path class="cls-1" d="M1018.3,159.76v.5a1.5,1.5,0,0,0,3,0v-.5a1.54,1.54,0,0,0-1.5-1.5,1.61,1.61,0,0,0-1.5,1.5Z"/><path class="cls-1" d="M1019,162.26a57.44,57.44,0,0,0,13.7,1.4,23.07,23.07,0,0,1-1.4-1.9q-5.85,31.35-10.9,62.9c-.3,1.9,2.6,2.7,2.9.8q5.1-31.5,10.9-62.9a1.52,1.52,0,0,0-1.4-1.9,62.05,62.05,0,0,1-12.9-1.3c-2-.4-2.8,2.4-.9,2.9Z"/><path class="cls-1" d="M1064.7,155.46c34-.4,67.9-.2,101.9.7a1.5,1.5,0,0,0,0-3c-34-.8-67.9-1-101.9-.7a1.5,1.5,0,0,0,0,3Z"/><path class="cls-1" d="M1067,167.66a394.83,394.83,0,0,0,63.4-.9c1.9-.2,1.9-3.2,0-3a394.83,394.83,0,0,1-63.4.9c-1.9-.1-1.9,2.9,0,3Z"/><path class="cls-1" d="M1062.4,182.76q43.5-.75,87,1.5c1.9.1,1.9-2.9,0-3q-43.5-2.4-87-1.5a1.5,1.5,0,0,0,0,3Z"/><path class="cls-1" d="M1218,229.16c-10.2-1.3-15.1-11.5-18-20.2-2.7-8.2-3.7-16.8-.6-25,5.4-14.4,20.1-26,34.9-29.3,15.4-3.5,31,4.7,38.4,18.4,7.8,14.4,5.1,32.9-4,46-11.2,16.1-34.8,17.9-51.2,9.4-1.7-.9-3.2,1.7-1.5,2.6,15.7,8.1,37.4,7.7,50.7-5,13-12.4,17.2-34.5,10.4-50.9-6.5-15.5-22.9-26.3-39.9-24.1-16.8,2.2-33.7,15-40.1,30.7-4.3,10.7-2.5,21.9,1.7,32.3,3.6,8.8,9.3,16.8,19.3,18.1,1.8.2,1.8-2.8-.1-3Z"/><path class="cls-1" d="M1222.2,158.66c4.7,12.1,9,24.4,13.1,36.8.6,1.8,3.5,1,2.9-.8-4.1-12.4-8.4-24.6-13.1-36.8-.7-1.7-3.6-1-2.9.8Z"/><path class="cls-1" d="M1238.4,197.16c11.8-8.2,23.5-16.7,34.9-25.4,1.5-1.2,0-3.8-1.5-2.6q-17.25,13.05-34.9,25.4c-1.6,1.1-.1,3.7,1.5,2.6Z"/><path class="cls-1" d="M1237.9,197.26a165.68,165.68,0,0,0,39.5-6.6,1.51,1.51,0,0,0-.8-2.9,158.18,158.18,0,0,1-38.7,6.4c-1.9.2-1.9,3.2,0,3.1Z"/><path class="cls-1" d="M1235.5,196.26c-8,10.3-15.9,20.6-23.9,30.9-1.2,1.5,1.4,3,2.6,1.5,8-10.3,15.9-20.6,23.9-30.9,1.2-1.5-1.4-3-2.6-1.5Z"/><path class="cls-1" d="M470,542c-2.5-.7-1-4,.1-5.1s4.2-1.1,5.8-1.1c2.9-.1,5.8,0,8.8-.1,6,0,12-.1,18-.1,12-.1,24-.1,36-.2,23.7-.1,47.3-.3,71-.4q71.55-.45,143-.6,142.5-.45,284.9.2c26,.2,52.1.2,78.1,1.3,12.9.5,25.8,1.3,38.7,2.5,6.4.6,12.9,1.3,19.3,2.1,2.1.3,4.2.5,6.3.9,1.7.3,2.7,0,3.3,1.6,1.6,3.8-3.5,7.7-6.6,7.9-1.9.1-1.9,3.1,0,3,6.7-.5,11.4-7.3,8.9-13.7-.2-.5-.5-1-1-1-47.7-7.1-96-7.1-144.1-7.4q-74.55-.45-149-.5-149.4,0-298.9.9c-28,.2-56,.3-84,.5-6.7,0-13.3.1-20,.1-5.6,0-12.2-.9-17.6.7-5.2,1.5-8.6,9.7-1.8,11.6,1.8.3,2.6-2.6.8-3.1Z"/><path class="cls-1" d="M462.6,559.56a888.16,888.16,0,0,1-36.7,106.2c-.7,1.8,2.2,2.6,2.9.8a888.16,888.16,0,0,0,36.7-106.2,1.5,1.5,0,0,0-2.9-.8Z"/><path class="cls-1" d="M463.6,562.56c25.7,3.1,52.2,1,78,.7a1.5,1.5,0,0,0,0-3c-25.8.4-52.3,2.4-78-.7-2-.2-1.9,2.8,0,3Z"/><path class="cls-1" d="M538.4,563.06q-12.75,47.1-27,93.8c-.6,1.9,2.3,2.6,2.9.8q14.25-46.65,27-93.8a1.5,1.5,0,0,0-2.9-.8Z"/><path class="cls-1" d="M427.3,667.26l42.2-.3c6.9,0,13.7-.1,20.6-.1,6.1,0,12.2.2,18.2-1.2,1.9-.4,1.1-3.3-.8-2.9-6.3,1.5-12.9,1.1-19.4,1.1-6.9,0-13.7.1-20.6.1-13.4.1-26.8.2-40.2.2-1.9.1-1.9,3.1,0,3.1Z"/><path class="cls-1" d="M554.1,563.76q101.4-2.85,202.9.4c1.9.1,1.9-2.9,0-3q-101.4-3.3-202.9-.4a1.5,1.5,0,0,0,0,3Z"/><path class="cls-1" d="M551.3,581.36c39.2-.1,78.4-.1,117.7-.2a1.5,1.5,0,0,0,0-3c-39.2.1-78.4.1-117.7.2a1.5,1.5,0,0,0,0,3Z"/><path class="cls-1" d="M511,663.76a31,31,0,0,0,3.8-9.5c.4-1.9-2.5-2.7-2.9-.8a28,28,0,0,1-3.5,8.8c-1,1.6,1.6,3.1,2.6,1.5Z"/><path class="cls-1" d="M886.2,572.56q-12,57.3-23.2,114.6c-.4,1.9,2.5,2.7,2.9.8q11.25-57.3,23.2-114.6c.4-1.9-2.5-2.7-2.9-.8Z"/><path class="cls-1" d="M863.6,689.66,986.8,693c40.6,1.1,81.2,2.8,121.8,2.8a1.5,1.5,0,0,0,0-3c-40.6,0-81.2-1.8-121.8-2.8l-123.2-3.3c-1.9-.1-1.9,2.9,0,3Z"/><path class="cls-1" d="M866.6,689.36c12.4-13.4,24.8-26.9,37.2-40.3h-2.1a55.05,55.05,0,0,0,14.5,12.7,1.5,1.5,0,0,0,1.5-2.6A50.72,50.72,0,0,1,903.8,647a1.54,1.54,0,0,0-2.1,0c-12.4,13.4-24.8,26.9-37.2,40.3-1.3,1.4.8,3.5,2.1,2.1Z"/><path class="cls-1" d="M917,660.76c13.3-15.7,26.7-31.3,40-47,1.2-1.5-.9-3.6-2.1-2.1-13.3,15.7-26.7,31.3-40,47-1.3,1.4.8,3.5,2.1,2.1Z"/><path class="cls-1" d="M954.9,612.26c2.7,3.6,5.4,7.1,8.1,10.7a1.56,1.56,0,0,0,2.4.3c12.2-10,24.1-20.5,35.6-31.3,1.4-1.3-.7-3.4-2.1-2.1-11.5,10.8-23.4,21.3-35.6,31.3l2.4.3c-2.7-3.6-5.4-7.1-8.1-10.7-1.3-1.6-3.9-.1-2.7,1.5Z"/><path class="cls-1" d="M997.8,593.26c16.7,13.2,32.8,27.1,48.4,41.5,1.4,1.3,3.5-.8,2.1-2.1q-23.4-21.75-48.4-41.5c-1.5-1.2-3.6.9-2.1,2.1Z"/><path class="cls-1" d="M1048,634.36c20.6-13.1,35.4-33.3,55.5-47.1,1.6-1.1.1-3.7-1.5-2.6-20.1,13.8-34.9,34-55.5,47.1-1.6,1-.1,3.6,1.5,2.6Z"/><path class="cls-1" d="M1086,590.36a147.05,147.05,0,0,0,18.5-4.6l-1.8-1.8c-1.1,5-2.1,10-3.2,15-.4,1.9,2.5,2.7,2.9.8,1.1-5,2.1-10,3.2-15,.2-1.1-.7-2.2-1.8-1.8a147.05,147.05,0,0,1-18.5,4.6c-1.9.3-1.1,3.2.7,2.8Z"/><path class="cls-1" d="M923,580.46c-3.5,35.7-7.1,71.4-10.6,107.1-.2,1.9,2.8,1.9,3,0,3.5-35.7,7.1-71.4,10.6-107.1.1-1.9-2.9-1.9-3,0Z"/><path class="cls-1" d="M967.4,574.16q-5.55,57.45-8.9,115.1c-.1,1.9,2.9,1.9,3,0q3.3-57.6,8.9-115.1c.1-2-2.9-1.9-3,0Z"/><path class="cls-1" d="M1051.2,573.06q-5.85,60-8.4,120.2c-.1,1.9,2.9,1.9,3,0q2.55-60.15,8.4-120.2c.2-1.9-2.8-1.9-3,0Z"/><path class="cls-1" d="M1001.1,558.46q-3.9,66.9-7.8,133.7c-.1,1.9,2.9,1.9,3,0q3.9-66.9,7.8-133.7c.1-2-2.9-2-3,0Z"/><path class="cls-1" d="M689.4,580.86c20.3,1.8,40.6-2.7,60.9-.2,1.9.2,1.9-2.8,0-3-20.3-2.5-40.6,2-60.9.2-2-.1-1.9,2.9,0,3Z"/><path class="cls-1" d="M374.5,400.46c35.4-5.2,69.5,9,100.9,23.8,29.1,13.8,57.9,27.9,90.2,32,69,8.6,135.1-20.4,200-38.7,38.1-10.7,77.6-18.2,117.3-13.2,1.9.2,1.9-2.8,0-3-70.3-8.9-136.7,20.7-202.9,39-33.6,9.3-68.4,16.3-103.4,14s-66-16.5-97.3-31.4c-32.9-15.7-68.3-30.8-105.6-25.3-1.9.2-1,3.1.8,2.8Z"/><path class="cls-1" d="M563.9,427.76c88.1,4.7,169.7-34.6,254-53.5,24.3-5.4,49-9.2,74-9.7a1.5,1.5,0,0,0,0-3c-88,2-168.5,42.5-254.1,58-24.4,4.4-49.1,6.6-73.9,5.3-1.9-.3-1.9,2.7,0,2.9Z"/><path class="cls-1" d="M394.4,325.46c39.9,2.8,76.3,20.6,113.1,34.5,37.4,14.1,76.4,22,116.4,21a299.87,299.87,0,0,0,67.9-9.7,1.5,1.5,0,0,0-.8-2.9,291.76,291.76,0,0,1-123.7,5.5c-39.2-6.8-74.5-23.9-111.6-37.2-19.8-7.1-40.2-12.7-61.3-14.1-2-.2-1.9,2.8,0,2.9Z"/><path class="cls-1" d="M665.7,133.16a75.94,75.94,0,0,1-3.9,14.7,1.48,1.48,0,0,0,1.4,1.9q95.55,4.2,191.1,1.7c1.9-.1,1.9-3.1,0-3q-95.55,2.55-191.1-1.7a23.07,23.07,0,0,1,1.4,1.9,74.08,74.08,0,0,0,3.9-14.7c.4-1.9-2.5-2.7-2.8-.8Z"/><path class="cls-1" d="M667.7,134.26l192.2,2.4a1.5,1.5,0,0,0,0-3l-192.2-2.4c-1.9-.1-1.9,2.9,0,3Z"/><path class="cls-1" d="M859.6,134.86a62.1,62.1,0,0,0-4.3,14.7c-.3,1.9,2.6,2.7,2.9.8a62.2,62.2,0,0,1,4-14c.7-1.8-1.9-3.3-2.6-1.5Z"/></g><g id="girl"><g id="leg_left" data-name="leg left"><path class="cls-8" d="M151.2,708.76l-51.4,12.3c8.9,56.2,15.9,84.2,20.8,83.8q6.3-.45,8.1-63c9.5-3.3,19-6.5,28.5-9.8C155.2,724.36,153.2,716.56,151.2,708.76Z"/><path class="cls-9" d="M268.1,499.26c-2.2,6.6-5.5,17.1-8.9,30.4-7.1,27.7-7.4,39.5-14.6,74.7-8.6,41.9-13,49.1-15.8,53.2-12.7,18.2-30.3,26.5-39.9,31A124.06,124.06,0,0,1,131.3,700c-.5,5.9-1,20.3,7.6,34.8A56.27,56.27,0,0,0,152.2,750a144.75,144.75,0,0,0,60.1-9.5c10.7-4.1,38-15.1,58.8-42.4,16-21,20.4-41.5,25.3-64.5,9.5-44.3-2.3-51,9.5-88.6,7.1-22.8,15.3-34,9.5-42.4C308.5,492.26,286.8,495,268.1,499.26Z"/><path class="cls-10" d="M269.3,499.36c-1,10.7-2.5,25.5-4.6,43.1-1.9,15.5-4,32.3-7.4,51.9-5.9,33.6-8.9,50.4-15.3,64.4-5.6,12.2-16.4,34.8-41.2,51.9-25.8,17.7-52.5,19.4-64.4,19.5a57,57,0,0,1-3.7-12,61.76,61.76,0,0,1-.9-17.1,135.33,135.33,0,0,0,30.6-3.2,128.48,128.48,0,0,0,39.4-15.8c9.1-5.7,18.6-11.6,26.4-23.2,5.3-7.8,7.5-14.9,11.1-29.7,5.3-21.8,8-32.6,10.2-48.6C251.9,562.06,257.2,535.06,269.3,499.36Z"/><path class="cls-11" d="M132,700.76a59,59,0,0,0,.8,17.3,63.07,63.07,0,0,0,3.9,12.6c13.7-2.9,56.8-13.9,83.5-53.3a118.29,118.29,0,0,0,15.5-33.1,84.07,84.07,0,0,1-15.7,24.4c-14.3,15.3-30.7,20.9-42.5,24.9A131.5,131.5,0,0,1,132,700.76Z"/></g><g id="leg_right" data-name="leg right"><path class="cls-8" d="M260.8,800.56q-11.7,32.25-23.4,64.6c54.8,6.4,82.7,7.3,83.7,2.5.8-3.7-15.4-11-48.4-21.7,4.5-13.3,9.1-26.6,13.6-39.9C277.8,804.26,269.3,802.36,260.8,800.56Z"/><path class="cls-9" d="M342.1,510.66c1.1,14.8,2.1,35,1.9,58.8-.5,65.7-9.4,115-12,128.4a674.8,674.8,0,0,1-39.2,131,68.61,68.61,0,0,1-39.2-10.1,65.72,65.72,0,0,1-19.6-19,444.65,444.65,0,0,0,20.9-45.6c12.9-33,18.5-59.3,22.1-76.6,8.1-38.9,12.2-58.3,8.9-79.1-3.2-19.7-8.4-23.1-7.6-39.9.2-3.7,2.7-46.8,29.7-55C321.9,499.46,335.7,506.66,342.1,510.66Z"/><path class="cls-12" d="M318.4,503.16c8.9,3.8,6,28.8,5.2,35.4-10.7,94.2,4,43.5-8.9,101.6-17.7,79.8-41.6,156.5-50,182.9a18,18,0,0,1-7.8-1.6c-2.8-1.3-3.4-3-6.8-5.7-3.7-2.9-5-2.7-7.8-4.7-2.5-1.8-5.6-5-7.8-10.9,5.2-10.2,11.4-23.3,17.7-39.1,8-20,12.4-35.2,17.2-51.6,0,0,15-51.7,17.7-91.2a79,79,0,0,0-.5-17.2c-.9-6.2-2.2-9.3-4.2-16.7a171.4,171.4,0,0,1-4.2-20.8c-2.5-23.9,10.2-43.1,16.2-50a29.27,29.27,0,0,1,8.9-7.3C304.8,505.56,313.5,501.06,318.4,503.16Z"/><path class="cls-13" d="M295.5,665.86c-1.7,24.3-7.4,31.5-24,91.2-7.3,26.2-12.7,47.7-16.2,61.5a41,41,0,0,1-20.3-17.7,421.69,421.69,0,0,0,18.2-43.3c2.6-7.2,4.3-12.7,5.9-17.7,22.8-73.1,26.4-95.3,27.5-110.5a198.94,198.94,0,0,0,0-26.6,148.93,148.93,0,0,0-3.4-23.3S298.8,618.66,295.5,665.86Z"/></g><g id="hand_left" data-name="hand left"><path class="cls-4" d="M169.1,466c.2-.3,1.2-.2,3.2,0,3.4.3,4.5.8,6.7,1s4.9.3,5.7-1c1.1-1.7-2.4-5-7.3-12.1-8.4-12-8-16.2-7.3-18.1.2-.5.8-2.4,2.1-2.7,1.7-.4,3.6,1.9,5.4,4.2,3,3.7,4.2,6.6,4.5,6.4.6-.2-2.9-7.7-2.1-16.9.2-2.5.6-6.1,2.4-6.6,1.6-.5,4,1.5,5.9,4.7,0-.4.5-5.9,2.4-6.3,1.5-.3,3.2,2.6,4.9,5.4a32.42,32.42,0,0,1,2.8,5.8,5.69,5.69,0,0,1,3.5-5.8c2.3-.7,4.4,1.1,4.5,1.2,2.3,2.1,2.1,5.8,2.1,7.1-.2,5.7.4,15.3,1.7,29.3a55.79,55.79,0,0,0,10.6-5.6c4.3-2.9,8.8-6.7,19.9-20,4.3-5.2,6.5-7.8,10.3-12.9,13.7-18.3,21.8-29.1,30-44.4,2.6-4.9,6.8-13.2,15.5-20.6,2.8-2.4,8.3-6.9,11.5-5.2,2.3,1.2,2.5,5,2.4,10.6-.1,12.2-.2,18.2-2.3,26.5a115.84,115.84,0,0,1-15.7,35.6c-7.9,11.6-15.8,18.3-26,27-10.6,9-19.4,16.4-33.3,22-9.1,3.6-16.3,4.9-23.9,6.3-12.6,2.2-19.1,3.3-25.6.5C174.3,477.36,168,467.46,169.1,466Z"/><path d="M307.6,351.46c-10.8,1.5-17.2,11.6-23,19.9-7.4,10.6-14.4,21.5-21.6,32.2a320.47,320.47,0,0,1-23.2,31.3,164.53,164.53,0,0,1-12.9,13.5c-5.1,4.8-10.7,10.3-17.4,12.6-1.8.6-1,3.5.8,2.9,10.5-3.5,19.4-13.5,26.7-21.4a270.93,270.93,0,0,0,23-29.2c7.2-10.4,14.1-21.1,21.1-31.6,6.6-9.8,14.4-25.5,27.3-27.3,1.9-.3,1.1-3.1-.8-2.9Z"/><path d="M213,482.46c12.8-1.2,23.6-7.1,34.3-13.9a179.84,179.84,0,0,0,29.7-23.2A124.49,124.49,0,0,0,304.9,406c6.4-14.9,9.4-31.2,7.3-47.4-.2-1.9-3.2-1.9-3,0,3.4,27.1-7.4,54-24.8,74.6a161.88,161.88,0,0,1-26.5,24.5c-13.2,9.8-28.2,20.3-45,21.9-1.8.1-1.8,3.1.1,2.9Z"/><path d="M213,479.36c-5.9-.1-11.6,1.3-17.4,1.7-6.7.5-12.3-1.5-17.8-5.2-2.2-1.5-4.6-3.3-6-5.7-2.9-5.1,3.1-2.1,5.2-1.5,3.4,1,6.5.6,9.1-1.7,1.5-1.3-.7-3.4-2.1-2.1-4.5,4-12.9-4.9-15.9.2-2.3,3.9,3,9.5,5.6,11.6,4.5,3.7,10,6.7,15.9,7.4,7.8.9,15.6-1.8,23.4-1.6,1.9-.1,1.9-3.1,0-3.1Z"/><path d="M186.3,465.26c-2-6.7-6.5-11.9-10.1-17.8-.5-.8-6.5-11.7-4.5-12.6,3.5-1.6,8.5,8.5,9.2,10.5.6,1.8,3.5,1,2.9-.8a22.83,22.83,0,0,0-8.6-11.7c-2.2-1.5-5.4-2.6-6.4.8-1.3,4.6,2.1,10.8,4.4,14.6,3.6,5.9,8.3,11,10.3,17.8a1.46,1.46,0,1,0,2.8-.8Z"/><path d="M184.7,444.46c-.9-3.7-2.1-7.5-2.7-11.3a26.64,26.64,0,0,1-.3-6.9c.3-3,.9-6,3.3-2.5,3.7,5.5,4.9,13,6.7,19.2a1.5,1.5,0,0,0,2.9-.8c-1.5-5.3-2.7-10.9-4.9-16-1.1-2.5-3.6-8.1-7.1-8.1s-3.7,5.6-3.9,8.1c-.5,6.5,1.5,12.7,3.1,18.9a1.48,1.48,0,1,0,2.9-.6Z"/><path d="M191.7,430.26c-.5-2.1-1.5-5.6-.7-7.7,1.5-3.9,3.7,3.1,4.3,4.6a50,50,0,0,1,3.7,16.6c.1,1.9,3.1,1.9,3,0a56.88,56.88,0,0,0-3.2-15.9c-1.1-3.1-2.7-8.6-5.7-10.3-6.8-3.9-4.9,11.1-4.4,13.6.5,1.8,3.4,1,3-.9Z"/><path d="M201.8,433.76c-.1-1-.8-6.4.4-7.4,3.3-2.9,4.2,2.4,4.6,4,.7,3.4.6,7.2.9,10.7.5,7.2,1,14.3,1.5,21.5.1,1.9,3.1,1.9,3,0-.5-7.2-1-14.3-1.5-21.5-.3-5,.1-11.6-2.5-16.1-1.4-2.4-3.8-4.6-6.6-2.8-3.6,2.4-3.1,8.8-2.6,12.4.2,1.9,3.1,1.1,2.8-.8Z"/><path class="cls-10" d="M308.7,355c-.5,0-.1,7.9-3.2,18.9-2.4,8.4-6.3,16.4-18.9,33-11.6,15.3-20,26.4-34.6,39.4-16,14.3-24,21.4-35,24.1-23.8,5.9-45.7-7.8-47.8-3.2-1.1,2.5,4.9,7.5,7.2,9.2,2.9,2.1,8.5,5.4,21.7,5.6a86,86,0,0,0,27.3-4c25.4-8.4,42.1-25,51-34.2,11.8-12,21.4-21.8,27.7-38.2C314.2,380.06,309.7,355,308.7,355Z"/><path class="cls-14" d="M306.7,393.56c-.7-.4-4.9,6.6-10.9,14.9a274.07,274.07,0,0,1-33,37c-10.2,9.3-28.8,23.7-58.3,35a65.83,65.83,0,0,0,25.3-3.2c3.2-1.1,11.2-4.1,30.5-20.9,15.4-13.4,24-20.8,32.6-33.8C302.2,408.66,307.7,394.06,306.7,393.56Z"/></g><g id="torso"><path class="cls-4" d="M319.2,340.46c-6.3,2.2-10.2,6.1-14.3,10.2-11.4,11.5-15.5,24.5-18.7,35-9.6,31.6-14.5,47.3-16.7,61.1a318.59,318.59,0,0,0-4.1,61.1,123.7,123.7,0,0,0,22,12.2c10.8,4.6,20.5,8.7,33,7.7a51.73,51.73,0,0,0,23.2-7.7,177.86,177.86,0,0,1,4.5-28.5c5-21.1,10.4-27.2,19.2-53.4,6.9-20.7,10.3-31.3,9.8-44-.4-8.9-1.2-26.3-14.3-39.9C352.8,344,334.9,335,319.2,340.46Z"/><path d="M314.7,341.16c-12,7.2-19.3,19.2-25.3,31.5a210.74,210.74,0,0,0-14.7,41.7c-7.3,30-9.1,61.1-10.3,91.9-.1,1.9,2.9,1.9,3,0,1.1-29.4,2.8-58.9,9.4-87.7a207.56,207.56,0,0,1,13.7-41.2c5.9-12.9,13.2-26.2,25.7-33.6,1.6-1,.1-3.6-1.5-2.6Z"/><path d="M353.4,347.66A57.5,57.5,0,0,1,375,383c2.8,16.1-1.1,32.5-6.5,47.6-5.2,14.6-12,28.5-16.7,43.3a195.34,195.34,0,0,0-8.8,44.8c-.2,1.9,2.8,1.9,3,0a194.9,194.9,0,0,1,10.8-50.1c5.5-15.4,12.8-30.1,17.5-45.8,4.2-14.1,6.4-29.4,2.9-44a59,59,0,0,0-21.6-33.1c-1.6-1.3-3.7.8-2.2,2Z"/><path d="M265,508.26a82.46,82.46,0,0,0,43.2,20.2c12.8,1.8,29.3,1.9,37.7-9.6,1.1-1.6-1.5-3.1-2.6-1.5-8.4,11.4-27,9.9-39.2,7.4a79.79,79.79,0,0,1-37-18.6c-1.4-1.3-3.5.8-2.1,2.1Z"/><path class="cls-13" d="M332.1,340.86c3.4,5.9-9.2,16.8-18.9,33.8-6.2,10.8-8.6,20.2-13.3,39-11,44-8.9,94-8,108.5-8.6-4.6-17.1-9.1-25.7-13.7.4-9.8,1.2-23.8,2.8-40.6,2.6-26.6,4.1-41.1,9.2-59.9,4.5-16.3,8.9-31.5,20.9-47.8a112.13,112.13,0,0,1,22.1-22.5C325,337.46,330.3,337.76,332.1,340.86Z"/><path class="cls-15" d="M293.9,371.06c1.3.4-4,21.3-12.5,67.5-5.6,30.3-6.9,41.2-2.4,54.7,5.8,17.3,17.5,27.8,15.3,30.1-1.4,1.4-7.4-.6-28.1-16.1a322.39,322.39,0,0,1,9.6-86.4C282.7,393.56,292.5,370.56,293.9,371.06Z"/></g><g id="head"><path class="cls-16" d="M387.2,299.66c4.7,4.3,4.1,12.7,3.2,24.9-.6,8.5-.9,12.8-3.8,16.9-6,8.5-19.6,12.4-30.3,7.6a24.13,24.13,0,0,1-11.5-11.2c-5.2-10.8.2-21.6,1.3-23.6C354.5,298.56,378.8,291.86,387.2,299.66Z"/><path class="cls-4" d="M387.4,244.36c3.8.8,6.1,6.1,10.7,16.8a115.27,115.27,0,0,1,6.5,20,118,118,0,0,1,2.3,15.2c-2.7.8-5.4,1.5-8.1,2.3a61.6,61.6,0,0,1-4.5,14.5c-3.6,8-6.6,14.9-13.6,18.1-8.1,3.7-16.8.4-19.7-1a59.93,59.93,0,0,1-4.8,9.4,57,57,0,0,1-4.5,6.1c-9.1,2.3-13.3-.1-14.9-1.3-8.4-6.2-7.7-26.2,5.2-48.8-.7-1.1-1.8-2.7-3.2-4.5-2.9-3.6-3.9-3.7-5.2-5.8-.4-.6-3.5-5.9-1-10.7a8.39,8.39,0,0,1,6.5-4.5c3.4-.3,4.5,2.4,7.4,3.2,5,1.5,10.5-3.9,24.2-16.8C382.2,245.76,384.5,243.76,387.4,244.36Z"/><path d="M397,260.76a129.31,129.31,0,0,1,8.8,36.8c.1,1.4,2.4,1.4,2.3,0a130.09,130.09,0,0,0-8.9-37.4c-.5-1.4-2.7-.8-2.2.6Z"/><path d="M406.4,296.56c-2.7.3-5.4.7-8.1,1-1.4.2-1.4,2.4,0,2.3,2.7-.3,5.4-.7,8.1-1,1.4-.3,1.4-2.5,0-2.3Z"/><path d="M397.7,298.56c-1.8,10-5.9,19.7-12.6,27.4-8,9.4-20.7,4.5-30.5.5-1.3-.6-1.9,1.6-.6,2.2,9.2,3.8,22.4,9,30.7,1,8.2-7.8,13.1-19.5,15.1-30.5.3-1.4-1.8-2-2.1-.6Z"/><path d="M359.5,330.76a79.27,79.27,0,0,1-7.7,13.6c-.8,1.2,1.1,2.3,1.9,1.1a83.24,83.24,0,0,0,7.7-13.6c.6-1.3-1.3-2.4-1.9-1.1Z"/><path d="M353.8,329a19.61,19.61,0,0,0,5.1,4,1.1,1.1,0,1,0,1.1-1.9,18.75,18.75,0,0,1-4.7-3.7c-.9-1.1-2.5.5-1.5,1.6Z"/><path d="M388.6,277.06a3.52,3.52,0,0,1,.3-3.7c-.6-.2-1.3-.3-1.9-.5a21,21,0,0,1,.2,5l1.1-1.1a2.09,2.09,0,0,0,.4.6c.3-1.4-1.9-2-2.2-.6a1.8,1.8,0,0,0,1.8,2.3,1,1,0,0,0,1.1-1.1,21,21,0,0,0-.2-5.6,1.16,1.16,0,0,0-1.9-.5,5.6,5.6,0,0,0-.6,6.4c.6,1.2,2.6.1,1.9-1.2Z"/><path d="M382.6,263.56a5.62,5.62,0,0,1,8.5-2.5c1.2.8,2.3-1.2,1.1-1.9-4.4-2.9-9.8-1-11.8,3.8-.5,1.4,1.7,2,2.2.6Z"/><path d="M378,281.56h-1.3c-.1-.2-.1-.4-.2-.6.2-.7.5-.9,1.1-.7l.4.4v-.1a1.1,1.1,0,1,0-1.9,1.1,1.73,1.73,0,0,0,1.6.7,1.5,1.5,0,0,0,1.1-1.4,1.52,1.52,0,0,0-2.8-.7,1.13,1.13,0,0,0,.4,1.5,1,1,0,0,0,1.6-.2Z"/><path d="M383,286.16h0a5.72,5.72,0,0,1-.8.7h-.5a.1.1,0,0,1-.1-.1l-.4-.4v.1c0-.3-.1-.6-.1-.9l.3-.3a1.15,1.15,0,0,0-.4,1.5c.3.5,1.1.8,1.5.4.7-.5,1.2-1.5.4-2.2a1.21,1.21,0,0,0-1.3-.3c-.5.1-.7.4-.9.9a1.14,1.14,0,0,0,.8,1.4,1.2,1.2,0,0,0,1.5-.8Z"/><path d="M375.1,286.26h-.2a1.15,1.15,0,0,0,0,2.3h.2a1.15,1.15,0,0,0,0-2.3Z"/><path d="M384.1,301.06c1.6,4.9,4.1,9.3,9.1,11.2,1.3.5,1.9-1.6.6-2.2-4.1-1.6-6.2-5.7-7.5-9.7a1.16,1.16,0,0,0-2.2.7Z"/><path d="M383.8,302.26a4,4,0,0,1,2.8-1.6,1.23,1.23,0,0,0,.8-1.4,1.14,1.14,0,0,0-1.4-.8,5.92,5.92,0,0,0-4.1,2.6c-.9,1.2,1,2.4,1.9,1.2Z"/><path d="M341.3,289.26c-6.1,2.2-9.4-7.2-8.3-11.6.6-2.3,2.2-5,4.6-5.7,3.3-1,6.3,1.6,8.4,3.6,1,1,2.6-.6,1.6-1.6-2.7-2.6-6-5.1-10-4.3-3.6.7-5.8,4.1-6.7,7.4-1.6,6.1,3.3,17.1,11,14.4,1.4-.5.8-2.7-.6-2.2Z"/><path class="cls-16" d="M379.5,246.56c-1.2,1.4-3,3.7-5.1,6.7-7.6,11.1-6.9,15.6-12.2,18.8a17.92,17.92,0,0,1-15.2,1.3c-3.6-1.5-4.6-3.8-7.7-3.7-3.4.1-6.6,2.9-7.9,6.2-1.6,3.9,0,7.5,1.1,9.8,1,2.1,2.4,5.2,5.4,5.9a6.65,6.65,0,0,0,4.5-.8c-.1,1.1-.3,2.8-.4,4.9a98.69,98.69,0,0,0,.9,18.6c1,9.4,1.9,16.9-.9,24-4.3,10.6-15,15.3-18.9,17-16.6,7.3-32,1.2-34.1.3-3.3-1.4-19.1-7.9-23-22.7-2.4-8.9.3-17.9,1.4-21.7a52.48,52.48,0,0,1,4.4-10.2,55.32,55.32,0,0,1,19.6-19.9A156.73,156.73,0,0,1,302.1,253c6.3-12.8,9.8-19.9,17.8-26.5,12.7-10.5,27.1-11.8,31.8-12.1a63.9,63.9,0,0,1,28.2,4.8c9.9,4,21.5,8.8,26.3,20.7,5.5,13.9-2.3,27.7-3.8,30.3a20.5,20.5,0,0,0-2.9-6.8c-2.5-3.7-5.3-5.2-9.5-8.1C387.3,253.16,383.7,250.46,379.5,246.56Z"/><path d="M338.3,345.36a17,17,0,0,0,14.1,1.5c1.8-.6,1-3.5-.8-2.9a14.38,14.38,0,0,1-11.8-1.2c-1.7-.9-3.2,1.7-1.5,2.6Z"/><path class="cls-12" d="M333.6,285.56a6.37,6.37,0,0,0,11.5,1.1,32.6,32.6,0,0,0,2.1,17.4c4.2,10.2,12.4,15,16,17.1a40.88,40.88,0,0,0,21.3,5.2,15.09,15.09,0,0,1-6.3,5.9c-8.1,4-16.6-1.4-17.1-1.7a63.12,63.12,0,0,1-6.3,10.8c-2.5,3.4-3.5,4.2-4.2,4.5-4.8,2.8-11.1-.1-12.9-1a51.14,51.14,0,0,1-8.7,6.6,46.71,46.71,0,0,1-23.7,7s-16,0-28.9-10.8a30.18,30.18,0,0,1-7.7-9.1,29.67,29.67,0,0,1-3.1-11.5c-1.1-12.5,4.3-23.1,7.3-27.9a51.48,51.48,0,0,1,16.7-16.4c-.3,1.1-4,16.6,4.2,24.1,10.3,9.3,33.6.5,38.7-12.9A18.09,18.09,0,0,0,333.6,285.56Z"/><path class="cls-17" d="M345.8,313.26c-.8.4,1.1,5.6,2.9,9.3a51.1,51.1,0,0,0,9.1,13.3c.7-1.8,1.4-3.6,2.1-5.3a26.76,26.76,0,0,0,20.5.2c-15.4-.3-23.2-5-27.5-9.3C349.4,318,346.6,312.86,345.8,313.26Z"/></g><g id="hand_right" data-name="hand right"><path class="cls-4" d="M594.2,221c-1.4-.8-1.7-2.7-1.9-4-.7-4.7,2.8-8.5,3.4-9.3,3.7-4.1,5.8-2,9.3-5.8,2.6-2.8,2.4-5.1,6.4-8.8,2.6-2.5,3.5-2.2,3.7-2.1,1.4.6.2,3.7,1.6,8.5,1.2,4,2.7,4,3.2,7.4.1.9.8,5.4-1.9,8-1.2,1.2-2.8,1.5-6.1,2.1-3.8.7-4.3.3-6.9.8C598.7,219,596.5,222.26,594.2,221Z"/><path d="M593.9,216.76c-15.1,15.6-30.2,31.3-45.3,46.9a6.18,6.18,0,0,0-.3,7.7,6,6,0,0,0,8,1.3c15.5-18,30.9-36.1,46.4-54.1C599.8,218,596.9,217.36,593.9,216.76Z"/><path d="M539.3,302.16c.5,1.3-1.1,4-9.8,9.8-2.5-.5-4.6-1.9-5-3.7-.6-3,3.7-5.5,5.6-6.4C533.6,300.26,538.6,300.36,539.3,302.16Z"/><path class="cls-4" d="M363.4,343.36c-5.4,1.2-14.9,3.5-19.3,11.3-2.9,5.1-2.3,10.5-2.1,12.4a24.33,24.33,0,0,0,13.6,18.7c8.2,3.7,16.7.9,21-.6,37.4-12.9,56.1-19.3,63.7-23.1,22-11.1,46.5-23.6,74.4-46.8,7.2-6,12.9-11.3,16.9-15.1a16,16,0,0,0,9.5,2.1c3.5-.4,5.8-2,9.2-4.4a27.67,27.67,0,0,0,7.7-7.4,27.31,27.31,0,0,0,3.9-9.2c.7-2.9,2.1-8.1.3-9.2-1.3-.8-2.7,1.4-6.2,1.5-.3,0-4.6,0-6.5-2.7-1.8-2.5.1-4.8-1.5-6.8-1.7-2.2-6.1-2-8.9-1.2-6.5,2-9.6,9.2-11.6,13-5.5,10.9-13.4,16.8-28.1,27.9-11.4,8.6-21.6,12.6-35.3,18.1a205.21,205.21,0,0,1-29.3,9.5C411.9,336.76,393.8,336.56,363.4,343.36Z"/><path d="M347,353.66c10.3-10.3,26.5-10.7,40.1-12.6,15.9-2.2,31.8-4.6,47.4-8.3,27.7-6.4,55.2-17.1,76.9-35.9a94.6,94.6,0,0,0,15.4-16.8c4-5.7,11.6-22.5,21-14.5,1.5,1.2,3.6-.9,2.1-2.1-3.6-3.1-8.4-3.3-12.6-1.2-5.9,3-8.6,9.6-12.1,14.9-9.1,13.8-22.9,24.4-37.1,32.5-29.9,17-64.3,23.1-97.9,28-15.2,2.2-33.6,2.4-45.2,13.9-1.5,1.3.6,3.4,2,2.1Z"/><path d="M344.8,350.06c-6.7,11.4-5.4,26.5,5.8,34.6,13.4,9.7,32.2.5,45.9-4.2a413.76,413.76,0,0,0,91.7-45.2,409.87,409.87,0,0,0,45.3-34.5c1.5-1.3-.7-3.4-2.1-2.1-44.9,39.2-99.4,70.2-157.2,85.7-9.9,2.7-20.2,2.1-26.6-6.9-5.6-7.7-4.9-17.9-.2-25.8a1.53,1.53,0,0,0-2.6-1.6Z"/><path d="M560.3,270a24.88,24.88,0,0,1,.8,7.2c-.4,3.3-2,4.4-3.2,7.1-.5,1.2-.6,2.4-1,3.6-.8,2.7-1.9,3.3-3.8,4.9-2.1,1.7-3.3,3.7-5.1,5.6-2.9,3.1-4.6,2.1-8.2,1.7-2.6-.3-5.3-.7-7.9-1-1.9-.2-1.9,2.8,0,3,4.3.6,11.6,3.1,15.6,1,1.6-.8,2.5-2.3,3.5-3.7a12.36,12.36,0,0,1,4.5-4.3c1-.5,1.5-.1,2.4-.9,1.1-.9,1.4-2.4,1.7-3.7a31.62,31.62,0,0,1,3.1-8.1c2.1-4.1,1.4-8.7.5-13a1.48,1.48,0,1,0-2.9.6Z"/><path d="M548,264.36c-2.3,3.4-.5,8.3,3.1,9.9,4.2,1.9,8.9-.9,11-4.6a1.5,1.5,0,0,0-2.6-1.5c-1.3,2.3-4,4.4-6.7,3.5a3.87,3.87,0,0,1-2.2-5.8c1-1.6-1.6-3.1-2.6-1.5Z"/><path d="M549.9,265.76q22.65-23.55,44.7-47.7c1.3-1.4-.8-3.6-2.1-2.1q-22.05,24.15-44.7,47.7c-1.4,1.3.7,3.5,2.1,2.1Z"/><path d="M562,269c14.4-16.6,28.7-33.2,43.1-49.8,1.3-1.5-.9-3.6-2.1-2.1-14.4,16.6-28.7,33.2-43.1,49.8-1.3,1.5.8,3.6,2.1,2.1Z"/><path d="M538.1,301.76c-1.9,1.9-3.8,3.9-5.7,5.8a16.07,16.07,0,0,1-2.2,2.3c-2.5,1.3-3.8-1.2-4.7-2.8a1.5,1.5,0,0,0-2.6,1.5c1.5,2.5,4,5.7,7.3,4.7,1.8-.5,3.1-2.3,4.3-3.6,1.9-1.9,3.8-3.9,5.7-5.8,1.4-1.4-.8-3.5-2.1-2.1Z"/><path d="M604.27,218.76c5.76,2.7,12.78,1.1,15.76-5.1a13,13,0,0,0,.48-9.7c-1.83-5-8.46-9.4-2.59-14.6,1.44-1.3-.68-3.4-2-2.1a9.24,9.24,0,0,0-2.12,11.6c2.12,3.9,5.48,6.1,4.42,11.2-1.15,6-7.3,8.5-12.39,6.1-1.83-.8-3.27,1.8-1.54,2.6Z"/><path d="M594.4,215.46c.6-4.4,2.2-7.3,6.1-9.5a43,43,0,0,0,5.9-3.4c3.7-3,4.8-8.5,9.2-10.7,1.7-.9.2-3.4-1.5-2.6a12.49,12.49,0,0,0-5.4,5.5c-2.2,3.5-4.2,5.8-7.9,7.7-6,3.1-8.5,6.2-9.4,13-.2,1.9,2.8,1.9,3,0Z"/><path d="M593.9,218.36a8.16,8.16,0,0,1,8.1,1.1c1.5,1.2,3-1.4,1.5-2.6a10.72,10.72,0,0,0-10.5-1.4c-1.7.7-.9,3.6.9,2.9Z"/><path class="cls-18" d="M603.8,204.56a21,21,0,0,1,11.9-.4,1.5,1.5,0,0,0,.8-2.9,24.77,24.77,0,0,0-13.5.4c-1.8.6-1,3.5.8,2.9Z"/><path class="cls-7" d="M602.08,204.56c7.24-3.1,9.42-11.6,16.16-15.4l-1.78-2.4c-5.16,4.7-.6,11.1.69,16.3.7-.6,1.49-1.1,2.18-1.7a24.35,24.35,0,0,0-11.6-2c.4.8.89,1.5,1.29,2.3a47,47,0,0,1,5-7.5c-.79-.5-1.69-1-2.48-1.5-.79,2.1-1.78,4.7-1.39,6.9a1.5,1.5,0,0,0,1.39,1.1c2.38-.1,3-3.4,3.77-5.2-.89-.3-1.89-.5-2.78-.8a19.89,19.89,0,0,1,.5,4.9c.2-.4.49-.9.69-1.3-.69.4-3.37.1-4.56.4a18.12,18.12,0,0,0-5.45,2.1,1.52,1.52,0,0,0,.79,2.8c2.48-.2,5-.5,7.44-.7,1.88-.2,1.88-3.2,0-3-2.48.2-5,.5-7.44.7.3.9.5,1.9.79,2.8a16.06,16.06,0,0,1,6.75-2c.89-.1,2.28.3,3.07-.3,1.78-1.3.59-4.4.4-6.3-.2-1.3-2.09-2.3-2.78-.8-.1.3-1.69,3.7-1.19,3.7a16.87,16.87,0,0,1,1.39,1.1c-.3-1.5.89-4,1.39-5.3s-1.59-2.6-2.48-1.5a50.61,50.61,0,0,0-5.46,8.1c-.49.9.1,2.4,1.29,2.3a20.61,20.61,0,0,1,10.12,1.6c1.19.5,2.58-.3,2.18-1.7-1-4-5.36-9.9-1.49-13.4,1.29-1.2-.4-3.2-1.78-2.4-6.65,3.8-9,12.3-16.17,15.4-1.68.9-.1,3.4,1.59,2.7Z"/><path class="cls-7" d="M616.7,186.06c-4.2,2.6-6.8,6.5-9.9,10.2-1.9,2.3-4,3.7-6.1,5.7-.8.7-1.5,1.1-1.5,2.2a.62.62,0,0,0,.4.6c6.3,2.7,13.3-4.5,19.5.6a.76.76,0,0,0,1.2-.2c1.8-2.6-2.2-5.1-3.7-6.7-.5-.5-1.5,0-1.3.7a2.84,2.84,0,0,0,.9,1.7c.6.8,1.9,0,1.3-.8-.2-.5-.5-.9-.7-1.4-.4.2-.8.5-1.3.7.7.7,4.4,3.6,3.5,4.9.4-.1.8-.1,1.2-.2a10.57,10.57,0,0,0-7.3-2.4,39.67,39.67,0,0,0-4.8.7,25.34,25.34,0,0,1-3.8.7c-1.4.2-3.1,1-2-.9.6-1,2.4-1.9,3.2-2.7a30.92,30.92,0,0,0,3.3-3.9c2.6-3.2,5-6.4,8.5-8.6,1-.1.2-1.4-.6-.9Z"/><path class="cls-7" d="M601.3,205.26c3,.4,5.9-.6,8.9-1a14.25,14.25,0,0,1,6.8.9,6.08,6.08,0,0,0,3.5.6c.5-.1.8-.4.7-.9a6.94,6.94,0,0,0-1.2-3.1c-.5-.8-1.8,0-1.3.8a4.61,4.61,0,0,1,1.1,2.7c.2-.3.5-.6.7-.9-2.8.3-5.6-1.7-8.5-1.7-3.4.1-6.9,1.7-10.3,1.2-1-.2-1.4,1.2-.4,1.4Z"/><path class="cls-7" d="M615.5,188.66a5.19,5.19,0,0,1,1.9-1.7c.2-.1.9-.6,1.1-.4s-.5.8-.7.9a9.59,9.59,0,0,0-2.6,3.7c-.4.9,1.1,1.3,1.4.4a11,11,0,0,1,2.7-3.4,1.65,1.65,0,0,0,.4-2.4c-1.5-2-4.4.6-5.4,1.9-.5.7.6,1.8,1.2,1Z"/><path class="cls-7" d="M618.9,185.36a8,8,0,0,0-3.4,4.8c-.2.9,1.2,1.3,1.4.4a6.66,6.66,0,0,1,2.7-3.9c.9-.6.1-1.9-.7-1.3Z"/><path d="M346,353.51c3.2-5.87,14.8-8.1,21.2-8.85,1.9-.28,1.1-3-.8-2.7-7.2.93-19.3,3.54-23,10.15-.8,1.59,1.8,3.08,2.6,1.4Z"/><path class="cls-14" d="M342.6,368a302.3,302.3,0,0,0,37.6-4.8c44.4-8.5,76-25,95.3-35.2a407.81,407.81,0,0,0,60.5-39.5c10.2-3.3,16.5-7.8,20.5-11.4,2.7-2.4,4.7-4.8,5.7-4.3,1.6.9-.9,9.2-4.3,15.2a36.11,36.11,0,0,1-7.6,9.5c-2.8,2.4-4.4,4.1-7.1,4.8-5,1.3-9.5-1.4-11-2.4-3.7,2.9-9.1,7.2-15.8,12.3-27,20.5-40.6,30.8-58.5,40.6-16.5,9-30.3,14.4-57.2,24.8-2.5,1-5.8,2.1-12.4,4.3-17.6,5.9-21.8,6.6-26.7,5.7a23.61,23.61,0,0,1-11.4-5.2A24.76,24.76,0,0,1,342.6,368Z"/><path class="cls-19" d="M421.9,368.66c-.2-.3,1.5-1.7,39-25.5,49.4-31.4,45.9-28.6,51.1-32.4,21.6-16,31.2-26.8,36.2-23.6,3.4,2.2,4,10.2.3,13.7-3.2,3.1-9.9,2.8-15.9-1.6a403,403,0,0,1-53.8,40.4C450.8,357,422.6,369.86,421.9,368.66Z"/></g></g></svg>