<svg id="Layer_1" data-name="Layer 1" xmlns="http://www.w3.org/2000/svg" viewBox="0 0 1459.85 1115.3"><defs><style>.cls-1{fill:#e8e8e8;}.cls-2{fill:#191919;}.cls-12,.cls-3{fill:#fff;}.cls-3{stroke:#191919;}.cls-12,.cls-13,.cls-3{stroke-miterlimit:10;stroke-width:2px;}.cls-11,.cls-4,.cls-5,.cls-6,.cls-7,.cls-8{fill:#6c6d6d;isolation:isolate;}.cls-4{opacity:0.19;}.cls-5{opacity:0.22;}.cls-6{opacity:0.25;}.cls-7{opacity:0.29;}.cls-8{opacity:0.26;}.cls-13,.cls-9{fill:#161616;}.cls-10{fill:#ec615b;}.cls-11{opacity:0.18;}.cls-12,.cls-13{stroke:#161616;}.cls-14{fill:#ffb808;}</style></defs><title>support</title><g id="background"><path class="cls-1" d="M357.05,893.9h703.5a1.5,1.5,0,0,0,0-3H357.05a1.5,1.5,0,0,0,0,3Z"/><path class="cls-1" d="M1079.05,831.7a334.16,334.16,0,0,0,8.7,85.7c.4,1.9,3.3,1.1,2.9-.8a327.45,327.45,0,0,1-8.5-84.9c-.1-1.9-3.1-1.9-3.1,0Z"/><path class="cls-1" d="M1198.15,834a238.79,238.79,0,0,1-5,79.5c-.4,1.9,2.4,2.7,2.9.8a238.34,238.34,0,0,0,5.1-80.3c-.2-1.9-3.2-1.9-3,0Z"/><path class="cls-1" d="M1089,920.2a188,188,0,0,0,105.1-3.6c1.8-.6,1-3.5-.8-2.9a185.09,185.09,0,0,1-103.5,3.6c-1.9-.4-2.7,2.5-.8,2.9Z"/><path class="cls-1" d="M1080.45,833.1a277.8,277.8,0,0,0,118-.5c1.9-.4,1.1-3.3-.8-2.9a275.19,275.19,0,0,1-116.4.5c-1.9-.4-2.7,2.5-.8,2.9Z"/><path class="cls-1" d="M1104.15,834.2c-5.2-11.7-.5-26,3.4-37.5a140.54,140.54,0,0,1,16.7-33.6l-2.4.3a24.08,24.08,0,0,0,7.9,5.9,1.52,1.52,0,0,0,2.2-1.7c-1.2-5.4-3.3-10.7-.9-16.1,1.7-3.8,4.1-7.6,6.1-11.2a16,16,0,0,1-2.1.5c2.1,1.3,4.2,2.5,6.3,3.8,1.4.9,2.6-.8,2.1-2.1-2.1-4.6-3.5-9.2-.6-13.8,1.7-2.8,3.9-5.3,5.8-7.9,4.2-5.6,8.6-11.2,13-16.7,8.4-10.5,17.1-20.7,26.1-30.7l-2.4-.3a115.75,115.75,0,0,1,23.1,57.9,107.52,107.52,0,0,1-1,30.5,109.82,109.82,0,0,1-3.8,15c-.3,1-.7,2-1,2.9-1.1,2.8-2.9,4-5.8,4.6-2,.4-3.1.1-4.8,1.4a1.57,1.57,0,0,0-.3,2.4c2.2,2.3,3.1,2.7,2.3,5.8a39.89,39.89,0,0,1-2.6,6.1c-1.8,4-3.8,7.9-5.9,11.7a164.12,164.12,0,0,1-14.7,22.2c-1.2,1.5.9,3.6,2.1,2.1a178.3,178.3,0,0,0,25.3-44.5,1.44,1.44,0,0,0-.4-1.5c-1.3-1.3-2.6-2.7-4-4l-.3,2.4c2.3-1.6,4.9-.5,7.3-1.5a6.49,6.49,0,0,0,3.7-3.9,80.36,80.36,0,0,0,4.8-15.1,114.41,114.41,0,0,0,2.5-33.5,117.6,117.6,0,0,0-23.8-62.5,1.56,1.56,0,0,0-2.4-.3q-16.65,18.45-32,38c-4.6,5.8-9.5,11.6-13.5,17.9-3.6,5.7-1.9,11.1.6,16.9l2.1-2.1c-2.1-1.3-4.2-2.5-6.3-3.8a1.58,1.58,0,0,0-2.1.5c-2.5,4.6-6.4,9.7-7.8,14.8-1.2,4.5,1.3,10.4,2.3,14.8.7-.6,1.5-1.1,2.2-1.7a20.46,20.46,0,0,1-7.3-5.4,1.51,1.51,0,0,0-2.4.3,145.61,145.61,0,0,0-18.1,37.7c-3.6,11.6-7.1,24.8-2,36.4a1.57,1.57,0,0,0,2.8-1.4Z"/><path class="cls-1" d="M1185.55,696.1c-4,45.3-35,81.6-47.9,124.2-.6,1.9,2.3,2.6,2.9.8,12.9-42.9,44-79.3,48-125,.2-2-2.9-1.9-3,0Z"/><path class="cls-1" d="M1147.75,720.2q4.8,24.75,11.1,49a1.5,1.5,0,0,0,2.9-.8c-4.2-16.2-7.9-32.6-11.1-49-.3-1.9-3.2-1.1-2.9.8Z"/><path class="cls-1" d="M1181.55,730.8a105.28,105.28,0,0,0,22.7-22.5c1.2-1.5-1.4-3-2.6-1.5a99.64,99.64,0,0,1-21.6,21.4c-1.5,1.2,0,3.8,1.5,2.6Z"/><path class="cls-1" d="M1172.25,688c2.7,8.6,4.3,19.1,10.9,25.6,1.4,1.4,3.5-.8,2.1-2.1-6.1-6.1-7.7-16.4-10.2-24.3-.5-1.8-3.4-1-2.8.8Z"/><path class="cls-1" d="M1098.15,833.4c-6.1-4.8-9.8-11.5-12.9-18.5-3.5-8.2-6.5-16.6-9.2-25.1a295.59,295.59,0,0,1-11-50c-4.5-35.4-.9-71.2-5.2-106.7-.9.3-1.9.5-2.8.8,11.2,25.2,37.4,40.3,59.2,55.3a16,16,0,0,1-.5-2.1l-9,12.9a1.52,1.52,0,0,0,1.3,2.3,31.73,31.73,0,0,0,11-1.8c-.6-.2-1.1-.5-1.7-.7l11.1,17.1a11,11,0,0,0,.2-1.8,38.08,38.08,0,0,0-4.8,5.7,1.52,1.52,0,0,0,.9,2.2c8.2,1.2,11.1,9,13.2,16,.6,1.8,3.5,1.1,2.9-.8-2.5-7.9-6.1-16.8-15.3-18.1.3.7.6,1.5.9,2.2a25.8,25.8,0,0,1,4.3-5,1.38,1.38,0,0,0,.2-1.8l-11.1-17.1a1.56,1.56,0,0,0-1.7-.7,29.81,29.81,0,0,1-10.2,1.6c.4.8.9,1.5,1.3,2.3l9-12.9a1.6,1.6,0,0,0-.5-2.1c-21.4-14.7-47.1-29.4-58.1-54.2-.6-1.3-3-.7-2.8.8,4.4,36.8.5,74,5.7,110.7a289.19,289.19,0,0,0,12.3,52c4.6,13.7,9.4,30.4,21.1,39.7,1.6,1.1,3.7-1,2.2-2.2Z"/><path class="cls-1" d="M1057.65,636.1c8.1,22.4,14.9,46,25.8,67.3,5.4,10.5,11.3,20.8,16.4,31.5,5.5,11.6,10.4,23.4,15.4,35.1.7,1.8,3.3.2,2.6-1.5-4.7-11.2-9.5-22.4-14.6-33.4-5-10.8-10.8-21.1-16.4-31.6-11.2-21.4-18.1-45.4-26.4-68.1-.6-1.9-3.5-1.1-2.8.7Z"/><path class="cls-1" d="M1061.45,712.1c10.8,1.3,22.6,1.9,30.8,10,1.4,1.4,3.5-.8,2.1-2.1-8.8-8.6-21.3-9.4-32.9-10.8-1.9-.3-1.9,2.7,0,2.9Z"/><path class="cls-1" d="M1090.35,671.6a103.4,103.4,0,0,0-3.5,20c-.4,5.8-1.1,12.6.9,18.2.6,1.8,3.5,1,2.9-.8-1.9-5.3-1.2-11.9-.8-17.5a104.41,104.41,0,0,1,3.4-19.2c.5-1.8-2.4-2.6-2.9-.7Z"/><path class="cls-1" d="M1068.25,766.6c7.8.2,15.3.3,22.9,2.4s14.9,4.3,22.4,6.5a1.5,1.5,0,0,0,.8-2.9c-8-2.3-15.9-4.8-24-6.9-7.3-1.9-14.6-1.8-22.1-2-1.9-.2-1.9,2.8,0,2.9Z"/><path class="cls-1" d="M1177.65,830.6a74.41,74.41,0,0,1,20,0c-.3-.7-.6-1.5-.9-2.2-.6.9-6.6,1-7.8,1.1-2.7.4-5.5.8-8.2,1.4-.4.1-3.1.4-3.2.7.2-.5,4.2-.4,4.8-.4,2.9,0,5.8.3,8.7.5v-3a22.25,22.25,0,0,0-7.2.9,1.48,1.48,0,0,0,.4,2.9,42.94,42.94,0,0,0,11.2-1.8,1.5,1.5,0,0,0-.8-2.9,40.39,40.39,0,0,1-10.4,1.7c.1,1,.3,2,.4,2.9a22.93,22.93,0,0,1,6.4-.8c1.9,0,1.9-2.9,0-3-4.4-.2-10.8-1.8-14.8.7-1.6,1-3.9,3.6-1.8,5.2.9.7,1.9.3,3,.2,3-.6,5.9-1.3,8.9-1.8,3.5-.6,10.5.3,12.9-3a1.52,1.52,0,0,0-.9-2.2,76.26,76.26,0,0,0-20.8-.1c-1.8.2-1.8,3.2.1,3Z"/><path class="cls-1" d="M1081.75,832.5a20.73,20.73,0,0,1,4.2-.8,13.35,13.35,0,0,1,2,0,10.74,10.74,0,0,1,1.8,0c-.1-.5-.3-1-.4-1.5a.35.35,0,0,1-.1.2c.6-.3,1.2-.7,1.8-1h-.2l1,1c0-.1,0-.2-.1-.2-.5-1.9-3.3-1.1-2.9.8,0,.1,0,.2.1.2a1.44,1.44,0,0,0,1,1h.2a1.47,1.47,0,0,0,1.8-1,.35.35,0,0,1,.1-.2,1.44,1.44,0,0,0-.4-1.5c-1.1-1.1-3.5-.9-4.9-.9a24.19,24.19,0,0,0-6,.9c-1.6.6-.8,3.5,1,3Z"/><path class="cls-1" d="M1084.05,852.6c36.5,6.3,74.4,9.3,110.4-1.5a1.51,1.51,0,0,0-.8-2.9c-35.4,10.6-72.8,7.7-108.8,1.5-1.9-.3-2.7,2.6-.8,2.9Z"/><path class="cls-1" d="M1209.75,893.7h192.4a1.5,1.5,0,0,0,0-3h-192.4a1.5,1.5,0,0,0,0,3Z"/><path class="cls-1" d="M1161.25,958h181.3a1.5,1.5,0,0,0,0-3h-181.3a1.5,1.5,0,0,0,0,3Z"/><path class="cls-1" d="M1188.75,957.7c-7.2,6-14.4,11.9-21.5,17.9-1.5,1.2.6,3.3,2.1,2.1,7.2-6,14.4-11.9,21.5-17.9,1.5-1.2-.7-3.4-2.1-2.1Z"/><path class="cls-1" d="M1168.15,978.8a1.5,1.5,0,0,0,0-3,1.5,1.5,0,0,0,0,3Z"/><path class="cls-1" d="M1198.65,975.8H1016a1.5,1.5,0,0,0,0,3h182.7a1.5,1.5,0,0,0,0-3Z"/><path class="cls-1" d="M1015.65,1006.8c10.8-9,21.9-17.6,33.3-25.9,1.5-1.1.1-3.7-1.5-2.6q-17.4,12.6-33.9,26.3c-1.5,1.3.6,3.4,2.1,2.2Z"/><path class="cls-1" d="M105.25,952.2h271.8a1.5,1.5,0,0,0,0-3H105.25a1.5,1.5,0,0,0,0,3Z"/><path class="cls-1" d="M142.15,978.3c9.5-8.1,19.1-16.2,28.6-24.3,1.5-1.3-.7-3.4-2.1-2.1-9.5,8.1-19.1,16.2-28.6,24.3-1.5,1.2.7,3.4,2.1,2.1Z"/><path class="cls-1" d="M107.75,981.2h196.8a1.5,1.5,0,0,0,0-3H107.75a1.5,1.5,0,0,0,0,3Z"/><path class="cls-1" d="M281.65,980.6c-7.5,8.4-15.2,16.6-23,24.8-1.3,1.4.8,3.5,2.1,2.1,7.8-8.2,15.4-16.4,23-24.8,1.4-1.4-.8-3.5-2.1-2.1Z"/><path class="cls-1" d="M230.45,1010.2h173a1.5,1.5,0,0,0,0-3h-173a1.5,1.5,0,0,0,0,3Z"/><path class="cls-1" d="M189.55,901.9h73.3a1.5,1.5,0,0,0,0-3h-73.3a1.5,1.5,0,0,0,0,3Z"/><path class="cls-1" d="M281.35,911.7H304a1.5,1.5,0,0,0,0-3h-22.6a1.5,1.5,0,0,0,0,3Z"/><path class="cls-1" d="M227.05,377v49a1.5,1.5,0,0,0,3,0V377a1.5,1.5,0,0,0-3,0Z"/><path class="cls-1" d="M176.75,428.4h120.6a1.5,1.5,0,0,0,0-3H176.75a1.5,1.5,0,0,0,0,3Z"/><path class="cls-1" d="M261,429.8v37.7a1.5,1.5,0,0,0,3,0V429.8a1.5,1.5,0,0,0-3,0Z"/><path class="cls-1" d="M227.65,472.7h96.1a1.5,1.5,0,0,0,0-3h-96.1a1.5,1.5,0,0,0,0,3Z"/><path class="cls-1" d="M1034.65,341.9v11.9a1.5,1.5,0,0,0,3,0V341.9a1.5,1.5,0,0,0-3,0Z"/><path class="cls-1" d="M1037.05,344.3h206.4a1.5,1.5,0,0,0,0-3h-206.4a1.5,1.5,0,0,0,0,3Z"/><path class="cls-1" d="M1038.85,355.3h204.5a1.5,1.5,0,0,0,0-3h-204.5a1.5,1.5,0,0,0,0,3Z"/><path class="cls-1" d="M1243,341.9a46.16,46.16,0,0,0,.5,12.3c.3,1.9,3.2,1.1,2.9-.8a40.35,40.35,0,0,1-.4-11.5c.2-1.9-2.8-1.9-3,0Z"/><path class="cls-1" d="M1051.15,342V258.3a1.5,1.5,0,0,0-3,0V342a1.5,1.5,0,0,0,3,0Z"/><path class="cls-1" d="M1051.15,258.8a28.13,28.13,0,0,1,25.4,1.8,1.5,1.5,0,0,0,1.5-2.6,31.13,31.13,0,0,0-27.7-2.1c-1.8.7-1,3.6.8,2.9Z"/><path class="cls-1" d="M1076.05,259.9v80.5a1.5,1.5,0,0,0,3,0V259.9a1.5,1.5,0,0,0-3,0Z"/><path class="cls-1" d="M1079.45,282.3a19.6,19.6,0,0,1,18.2,1.4,1.5,1.5,0,0,0,1.5-2.6,22.55,22.55,0,0,0-20.5-1.7c-1.8.7-1,3.6.8,2.9Z"/><path class="cls-1" d="M1097.05,283.6v56.3a1.5,1.5,0,0,0,3,0V283.6a1.5,1.5,0,0,0-3,0Z"/><path class="cls-1" d="M1051.55,281.8a44.74,44.74,0,0,1,25.1,1.6c1.8.6,2.6-2.3.8-2.9a48.55,48.55,0,0,0-26.7-1.6c-1.8.4-1,3.3.8,2.9Z"/><path class="cls-1" d="M1077.35,316.5a40.64,40.64,0,0,1,19.3-.5c1.9.4,2.7-2.5.8-2.9a43.5,43.5,0,0,0-20.9.5,1.51,1.51,0,0,0,.8,2.9Z"/><path class="cls-1" d="M1134.85,341V324.2a1.5,1.5,0,0,0-3,0V341a1.5,1.5,0,0,0,3,0Z"/><path class="cls-1" d="M1133.35,325.1h97.4a1.5,1.5,0,0,0,0-3h-97.4a1.5,1.5,0,0,0,0,3Z"/><path class="cls-1" d="M1231.75,326.7a1.5,1.5,0,0,0,0-3,1.5,1.5,0,0,0,0,3Z"/><path class="cls-1" d="M1230.25,325.2v15.3a1.5,1.5,0,0,0,3,0V325.2a1.5,1.5,0,0,0-3,0Z"/><path class="cls-1" d="M1153.75,323.1V307.3a1.5,1.5,0,0,0-3,0v15.8a1.5,1.5,0,0,0,3,0Z"/><path class="cls-1" d="M1152.25,308.3h95.8a1.5,1.5,0,0,0,0-3h-95.8a1.5,1.5,0,0,0,0,3Z"/><path class="cls-1" d="M1247.05,306.8V320a1.5,1.5,0,0,0,3,0V306.8a1.5,1.5,0,1,0-3,0Z"/><path class="cls-1" d="M1229.65,325.6h17.4a1.5,1.5,0,0,0,0-3h-17.4a1.5,1.5,0,0,0,0,3Z"/><path class="cls-1" d="M1246.85,320.1a6.47,6.47,0,0,0,.1,3.1,1.46,1.46,0,1,0,2.8-.8,3.93,3.93,0,0,1-.1-1.5c.1-.8-.2-1.7-1-1.8a1.43,1.43,0,0,0-1.8,1Z"/><path class="cls-1" d="M1175.05,307.5a40.9,40.9,0,0,1,.9,15.6c-.2,1.9,2.8,1.9,3,0a45.32,45.32,0,0,0-1-16.4c-.5-1.8-3.4-1-2.9.8Z"/><path class="cls-1" d="M1197.65,324.9a38.24,38.24,0,0,1-.9,14.7,1.5,1.5,0,0,0,2.9.8,40.75,40.75,0,0,0,.9-16.3c-.2-1.9-3.1-1.1-2.9.8Z"/><path class="cls-1" d="M1178.05,446.6v23.6a1.5,1.5,0,0,0,3,0V446.6a1.5,1.5,0,1,0-3,0Z"/><path class="cls-1" d="M1154.85,470.6h60a1.5,1.5,0,0,0,0-3h-60a1.5,1.5,0,0,0,0,3Z"/><path class="cls-1" d="M1120.75,134.2v54.1a1.5,1.5,0,0,0,3,0V134.2a1.5,1.5,0,0,0-3,0Z"/><path class="cls-1" d="M1124.55,134.1h68.3a1.5,1.5,0,0,0,0-3h-68.3a1.5,1.5,0,0,0,0,3Z"/><path class="cls-1" d="M1193,133.7v52.1a1.5,1.5,0,0,0,3,0V133.7a1.5,1.5,0,0,0-3,0Z"/><path class="cls-1" d="M1121.85,190h72.6a1.5,1.5,0,0,0,0-3h-72.6a1.5,1.5,0,0,0,0,3Z"/><path class="cls-1" d="M1127.45,140.4v41a1.5,1.5,0,0,0,3,0v-41a1.5,1.5,0,0,0-3,0Z"/><path class="cls-1" d="M1129.65,141.6h56.2a1.5,1.5,0,0,0,0-3h-56.2a1.5,1.5,0,0,0,0,3Z"/><path class="cls-1" d="M1184.75,140.4v38a1.5,1.5,0,0,0,3,0v-38a1.5,1.5,0,0,0-3,0Z"/><path class="cls-1" d="M1129.65,182.9h55.9a1.5,1.5,0,0,0,0-3h-55.9a1.5,1.5,0,0,0,0,3Z"/><path class="cls-1" d="M1165.05,164.9c-7.9-6,3.9-18.5,9.4-11,5.1,6.8-3.2,15-10.3,11.2-1.7-.9-3.2,1.7-1.5,2.6,4.6,2.5,10.7,1.8,14-2.5s3-11.1-1.3-14.7c-4.5-3.7-10.9-1.2-14,3a10,10,0,0,0,2.2,14c1.6,1.1,3-1.5,1.5-2.6Z"/><path class="cls-1" d="M1155.55,179.7c-.4-7.9,9.3-10.9,15.4-10.9,7.5,0,9.9,6.7,13,12.4.9,1.7,3.5.2,2.6-1.5-2.1-3.8-4.1-8.8-7.6-11.6-3.2-2.5-7.2-2.4-11-2-7,.8-15.9,5.1-15.4,13.6.1,1.9,3.1,1.9,3,0Z"/><path class="cls-1" d="M1131,172.5c2.2-4.1,10.3-2.5,13.3-.9a11.6,11.6,0,0,1,5.7,7.9c.4,1.9,3.3,1.1,2.9-.8a14.86,14.86,0,0,0-10-11c-4.4-1.4-11.9-1.5-14.4,3.2-1,1.8,1.6,3.3,2.5,1.6Z"/><path class="cls-1" d="M1136.75,165.1c-3.3-.1-2.5-5-1.1-6.7a5.16,5.16,0,0,1,8.3,6.1,4.6,4.6,0,0,1-4.1,1.7c-.6,0-3.1.1-3.5-.4-1.1-1.6-3.7-.1-2.6,1.5,1.2,1.8,3.7,1.9,5.7,1.9a8,8,0,0,0,6.4-2.3c3.2-3.5,2.1-9.4-1.7-12a8.25,8.25,0,0,0-11.9,3.2c-1.8,3.9-.5,9.8,4.5,9.9,2,.2,2-2.8,0-2.9Z"/></g><g id="icons"><path class="cls-1" d="M524.75,400c4.7,3.8,10.5,2.2,14.9-1.5,6.2-5.1,9.3-13.8,10.5-21.5,3.1-19.6-4.8-38.2-7.9-57.2-5.6-35.3,9.8-73.1,38.4-94.3,13.9-10.4,36.8-21.5,31.4-42.8a1.5,1.5,0,0,0-2.9.8c5.1,20.3-18.5,30.6-31.4,40.4a100.06,100.06,0,0,0-27.7,33.3,104.49,104.49,0,0,0-11.7,40.5c-1.3,17.1,3.2,33,6.9,49.5,2.2,10,3.6,20.5,1.7,30.7a40.22,40.22,0,0,1-5,13.4c-2.8,4.4-9.5,11.2-15.1,6.7-1.4-1.3-3.6.8-2.1,2Z"/><path class="cls-1" d="M611,181.5c-11.3.5-21.2-8.3-20.6-19.9.6-12.1,14.9-23.3,27-20.1,10.8,2.9,19.1,14.8,16.4,25.9s-15.2,13.5-24.8,15.1c-1.9.3-1.1,3.2.8,2.9,12.4-2,26.8-6.4,27.6-21.4.6-12.2-10.3-25.4-22.8-25.9-13.2-.6-26.5,10.2-27.2,23.6-.6,13.2,10.7,23.4,23.6,22.9,1.9-.2,1.9-3.2,0-3.1Z"/><path class="cls-1" d="M596.15,173.7c4.8-12.1,30.4-14.1,33.4.3.4,1.9,3.3,1.1,2.9-.8-3.7-17.6-33.4-15-39.2-.3-.7,1.8,2.2,2.5,2.9.8Z"/><path class="cls-1" d="M611.15,160.2a5,5,0,0,1-1.5-6.6c1.6-2.7,5-3,7.6-1.6a3.82,3.82,0,0,1,1.2,5.5c-1.5,2.3-4.7,2.6-7.2,2-1.9-.4-2.7,2.5-.8,2.9,4,.9,8.8,0,10.8-3.9a6.8,6.8,0,0,0-3.1-9.4c-4-1.8-8.8-1-11.1,2.9-2.3,3.7-.8,8.3,2.6,10.7,1.6,1.3,3.1-1.3,1.5-2.5Z"/><path class="cls-1" d="M653.55,129.4c10.5-27.8,40.7-42,68.8-43.9,18.6-1.3,37.2,1.6,55.4,5.1,17.2,3.4,35.1,8.8,52.7,8.2,14.5-.5,29.4-6.5,36.2-20,.9-1.7-1.7-3.2-2.6-1.5-7.9,15.6-26.1,19.6-42.2,18.3-18.8-1.5-37.3-7.1-55.8-10.2-30-5-62-5.7-88.7,11.2-12.1,7.7-21.7,18.5-26.8,32-.6,1.8,2.3,2.6,3,.8Z"/><path class="cls-1" d="M878.75,77.1h79.3a1.5,1.5,0,0,0,0-3h-79.3a1.5,1.5,0,0,0,0,3Z"/><path class="cls-1" d="M877.65,73.9c-4.7-4.6.4-12.4,4.1-15.9,4.5-4.4,10.7-6.1,16.7-3.7a1.48,1.48,0,0,0,1.7-.7c3.6-8.4,12.1-14.5,21.4-14.1,9.7.4,17.9,7.7,20.3,16.9a1.52,1.52,0,0,0,2.2.9c4.4-2.7,8.9.5,10.7,4.6,1.6,3.8,1.2,8.1.8,12.2-.2,1.9,2.8,1.9,3,0,.6-6,1-13.1-3.8-17.7-3.4-3.2-8.1-4.2-12.1-1.7.7.3,1.5.6,2.2.9-2.7-10-11.3-18-21.8-19-10.8-1.1-21.2,5.6-25.4,15.5.6-.2,1.1-.5,1.7-.7-8-3.2-16.4.2-21.6,6.8-3.9,4.9-7.3,12.8-2,17.9,1.2,1.3,3.3-.8,1.9-2.2Z"/><path class="cls-1" d="M934.55,88.6c12.3-1.4,19.5,11.5,21.4,21.9,2,10.7.1,21.4-1,32.1-1.7,16.1-.6,35.5,14.7,44.9,1.6,1,3.2-1.6,1.5-2.6-20.9-12.8-12.2-41.3-11.4-60.9.6-14.9-5.3-40.6-25.2-38.4-1.9.2-1.9,3.2,0,3Z"/><path class="cls-1" d="M986.25,170.6c-9,22.7-17.9,45.4-26.9,68-.7,1.8,2.2,2.6,2.9.8,9-22.7,17.9-45.4,26.9-68,.7-1.8-2.2-2.5-2.9-.8Z"/><path class="cls-1" d="M987.65,172.5a279,279,0,0,1,46.6,1.4,23.07,23.07,0,0,1-1.4-1.9,689.62,689.62,0,0,0-18.2,72c-.4,1.9,2.5,2.7,2.9.8a715.59,715.59,0,0,1,18.2-72,1.52,1.52,0,0,0-1.4-1.9,279,279,0,0,0-46.6-1.4c-2,.1-2,3.1-.1,3Z"/><path class="cls-1" d="M960.05,241.5c9.2.4,18.3.9,27.5,1.5,8.9.5,18.4.3,26.8,3.7,1.8.7,2.6-2.2.8-2.9-8-3.3-17.1-3.1-25.6-3.6-9.8-.6-19.6-1.1-29.5-1.6-1.9-.2-1.9,2.8,0,2.9Z"/><path class="cls-1" d="M989.05,182.5a250.27,250.27,0,0,1,28.7,2.2c1.9.3,2.7-2.6.8-2.9a242.72,242.72,0,0,0-29.5-2.4,1.55,1.55,0,0,0,0,3.1Z"/><path class="cls-1" d="M986.15,189.3a125.22,125.22,0,0,1,16.2.4c1.9.2,1.9-2.8,0-3a109.6,109.6,0,0,0-16.2-.4c-1.9.1-1.9,3.1,0,3Z"/><path class="cls-1" d="M979.55,202.8c11.5-.7,22.4-1.7,33.7,1.1a1.5,1.5,0,0,0,.8-2.9c-11.6-2.8-22.7-1.9-34.5-1.2-2,.1-2,3.1,0,3Z"/><path class="cls-1" d="M980.05,211.6a119,119,0,0,1,19.8.1c1.9.2,1.9-2.8,0-3a119,119,0,0,0-19.8-.1c-1.9.2-2,3.2,0,3Z"/><path class="cls-1" d="M974.85,223.2a132.33,132.33,0,0,1,26.7.9c1.9.3,1.9-2.7,0-3a132.58,132.58,0,0,0-26.7-.9c-1.9.1-1.9,3.1,0,3Z"/><path class="cls-1" d="M477.25,89c4,5.4,9.8,7.6,15.7,10.3a56.87,56.87,0,0,1,18.6,13.2c11.8,12.7,15.7,29.8,16,46.7.7,31.7-10,64.9,4.4,94.9.8,1.7,3.4.2,2.6-1.5-15.1-31.6-1.7-67-4.3-100.2-1.1-14.4-5.2-28.5-14.5-39.7A57.7,57.7,0,0,0,500,99.4c-6.7-3.8-15.4-5.5-20.1-11.9-1.1-1.5-3.7,0-2.6,1.5Z"/><path class="cls-1" d="M443.05,46.7q-3.9-5,.6-6.9a14.38,14.38,0,0,1,4.1-1.5,23.94,23.94,0,0,1,6-.4c6,.3,12.1,1.9,11.8,9.2a121.12,121.12,0,0,1-4,25.4c-2.2,8.5-4.9,16.8-7.8,25.1a37.34,37.34,0,0,1-2,5.6c-1.8,3.1-4.6,3-7.6,3-3.7,0-8.4.5-12-.5-4-1.1-4.9-5.1-1-7.7,1.8-1.2,4.3-1.4,6.4-1.4,2.7,0,5.1.6,7.4-1.2,4.4-3.4,5.1-12.6,6.1-17.5,1.5-7.1,4-15.8,3.5-23-.4-5.5-5.8-5.7-9.7-8a1.5,1.5,0,0,0-1.5,2.6c3.1,1.8,7.6,2,8.2,6.1.7,4.8-1.3,11.3-2.2,16.1-.9,4.6-1.9,9.2-3.1,13.7-.9,3.4-1.3,7.5-5.8,8.4-1.8.4-4-.2-5.9.1-4.8.7-9.5,4.1-8.8,9.5.9,6.8,9,5.6,14,5.8,6.2.2,12.4,1.1,15.2-5.5,3.5-8.2,6-17.2,8.4-25.7a138.29,138.29,0,0,0,5.1-27c.6-7.1.9-12.8-7-14.7-6.9-1.7-16.4-2.5-21.8,3.1-3.6,3.7-2.7,11,3.5,10.5,1.8-.4,1.8-3.4-.1-3.2Z"/><path class="cls-1" d="M431,57.4l-.3-.3a1.67,1.67,0,0,0-1.5-.4c-2.9,1-4,5.7-4.8,8.3a34.71,34.71,0,0,0-1,14.7c.2,1.9,3.2,1.9,3,0a36.25,36.25,0,0,1,.1-10.4c.3-1.8,3.4-8.8,2.3-9.8a1.52,1.52,0,0,0,2.2-2.1Z"/><path class="cls-1" d="M420.85,46.4c-9.2,11.7-15.1,25.8-11.2,40.8a1.5,1.5,0,0,0,2.9-.8c-3.6-13.8,2-27.1,10.4-37.9,1.2-1.5-.9-3.6-2.1-2.1Z"/><path class="cls-1" d="M408.25,32.9a100.1,100.1,0,0,0-19.9,70.7c.2,1.9,3.2,1.9,3,0a97.73,97.73,0,0,1,19.5-69.2c1.1-1.5-1.5-3-2.6-1.5Z"/><path class="cls-1" d="M387,135.1a65.65,65.65,0,0,0-20.6,15.2c-5.8,6.6-7.6,13.7-8.5,22.3-2,19.7-9.3,41.3-29.1,49.6-1.8.7-1,3.6.8,2.9,15.8-6.6,25-21.6,28.9-37.8,2.3-9.7,1.2-21.2,6.3-29.9,5.2-8.9,14.6-15.4,23.7-19.8,1.8-.7.3-3.3-1.5-2.5Z"/><path class="cls-1" d="M286.45,275.3c-6.6.2-14.1-2.6-16.5-9.4-2.8-8,3.2-15.8,9.6-19.9,12.4-8,29.1-11.1,43.5-11.3,7.3-.1,15.6,0,22,3.9,8.2,5,9.6,14.4,3.2,21.5-9.7,10.8-26.4,11.9-39.8,12.9-1.9.1-1.9,3.1,0,3,13.4-1,28.4-2.2,39.2-11.2,9.9-8.2,10.6-21.8-1-28.9-12-7.3-30.3-4.9-43.3-2.1-12.5,2.7-29.6,7.6-35.2,20.5-5.8,13.2,5.3,24.2,18.5,23.8,1.8.1,1.8-2.9-.2-2.8Z"/><path class="cls-1" d="M286,276.5c-2.5,4-4.9,8-7.4,11.9-.8,1.3.8,2.7,2.1,2.1,6.1-3.3,12.7-5.4,18.9-8.3a78.64,78.64,0,0,0,9.9-5.3c1.1-.7,2.4-1.1,2.7-2.5a1.43,1.43,0,0,0-1-1.8.37.37,0,0,1-.3-.1c-.7-.1-1.7.2-1.8,1v.2c-.4,1.9,2.5,2.7,2.9.8v-.2c-.6.3-1.2.7-1.8,1a.37.37,0,0,1,.3.1c-.3-.6-.7-1.2-1-1.8-.3,1-5.9,3.3-7.1,4a97.64,97.64,0,0,1-9.3,4.2,129.63,129.63,0,0,0-13.7,6.1l2.1,2.1c2.5-4,4.9-8,7.4-11.9.7-1.7-1.9-3.2-2.9-1.6Z"/><path class="cls-1" d="M289.25,259.2c-.1-.2-.1-.6.2-.6.8,0-.1,1-.2,1.1-.5.3-2.2.7-2.1-.3.1-1.2,2.4-2.5,2.8-.7a1.1,1.1,0,0,1-.8,1.2.59.59,0,0,1-.7-.1c-.1-.1-.3-.2-.1-.2,1.9.1,1.9-2.9,0-3a3,3,0,0,0-3,3.8,3.69,3.69,0,0,0,4.5,2.4,4.26,4.26,0,0,0,3.2-4,4.17,4.17,0,0,0-3.2-3.9c-3.7-.9-7.6,4.5-4.4,7.2,2.6,2.2,7.8.2,7.5-3.5a3.46,3.46,0,0,0-4.4-2.9,3.55,3.55,0,0,0-1.8,5c.8,1.7,3.4.2,2.5-1.5Z"/><path class="cls-1" d="M311.35,256.5c-.1-.6-.4-1.4.2-1.9a1.68,1.68,0,0,1,1.2-.3c1,.2.8,1.3.1,1.8a.71.71,0,0,1-1.1-.1c-.3-.4-.2-.5.1-.7s-.4,0,.1-.1c1.2-.2-.8,1.2-.5.2-.6,1.9,2.3,2.6,2.9.8a2.71,2.71,0,0,0-3-3.3,2.67,2.67,0,1,0,3,3.9,2.94,2.94,0,0,0-1.5-4.3,3.27,3.27,0,0,0-4.2,2.3,3.82,3.82,0,0,0,2.9,4.5c3.6.8,6.6-4.1,4-6.8a4.58,4.58,0,0,0-5-.7c-2.2,1.1-2.3,3.4-1.9,5.5.1,1.9,3,1.1,2.7-.8Z"/><path class="cls-1" d="M333.55,249.8c.4,0,.8.1,1.3.1v-.1c.1-.1.1-.3.2-.4a1.47,1.47,0,0,1,.6-.5,1,1,0,0,1,1.3.3c.4.8-.3,2.3-1.3,1.7-.6-.4-.7-1.4.2-1.2a.52.52,0,0,1,.4.2h0c0-.2,0,.1-.1.1-.3.2-.4.4-.7.2a1.58,1.58,0,0,0-2.1.5,1.69,1.69,0,0,0,.5,2.1c2.9,2.1,6.8-2.1,4.5-4.9-2.1-2.5-6.6-.9-6.4,2.4a4.06,4.06,0,0,0,3,3.6,4,4,0,0,0,4.2-1.8c2-3.1-.8-7.4-4.5-6.2a4.29,4.29,0,0,0-3,4.2c.2,2.1,3.2,3.2,4.3,1.1a1.39,1.39,0,1,0-2.4-1.4Z"/><path class="cls-1" d="M394,162.6a109.3,109.3,0,0,0,31.9-26.7c1.2-1.5-.9-3.6-2.1-2.1a106.78,106.78,0,0,1-31.3,26.2c-1.7.9-.2,3.5,1.5,2.6Z"/><path class="cls-1" d="M543.55,165.2a173.64,173.64,0,0,0-2.5,38.1c.1,1.9,3.1,1.9,3,0a166.42,166.42,0,0,1,2.4-37.3c.3-1.9-2.6-2.7-2.9-.8Z"/><path class="cls-1" d="M528.25,457.5a48.73,48.73,0,0,1,19.5-39c1.5-1.1,0-3.7-1.5-2.6a51.58,51.58,0,0,0-20.9,41.6c-.1,1.9,2.9,1.9,2.9,0Z"/></g><g id="chair"><path class="cls-2" d="M695.75,861.3a401.37,401.37,0,0,0,8.1,47.3,406,406,0,0,0,19.2,60.3,27,27,0,0,1-27.9,5c-3.6-12.5-7.1-25.5-10.3-39-6.6-27.8-11.4-54.3-14.9-79Q683,858.6,695.75,861.3Z"/><path class="cls-2" d="M920.25,851.9a390.47,390.47,0,0,1-7.2,47.3A397.9,397.9,0,0,1,894,962.1a21,21,0,0,0,29.2,0c2.3-12.1,4.5-24.3,6.7-36.5,4.8-26.7,9.1-53,13.2-79C935.45,848.3,927.85,850.1,920.25,851.9Z"/><path class="cls-2" d="M741.45,812c2.3,15.3,5,31.1,8.1,47.3,4.5,23.5,9.6,45.9,15,67.1a28.9,28.9,0,0,1-25.1,2.3c-3-14.2-5.9-28.6-8.8-43-5.3-26.7-10.2-53-14.9-79C724.35,808.4,732.85,810.2,741.45,812Z"/><path class="cls-2" d="M882.55,809c-2.7,15.1-5.1,30.9-7.2,47.3q-4.35,33.9-6.1,64.8a23.22,23.22,0,0,0,11.4,3.7,22.91,22.91,0,0,0,12.3-3.2,306.55,306.55,0,0,1-.8-38.9,319.19,319.19,0,0,1,13.2-79C897.75,805.4,890.15,807.2,882.55,809Z"/><path class="cls-3" d="M1060.25,474.4c17.5,31.2,4,65.7-28.8,151.4-15.8,41.2-44.7,116.9-85.5,224.8a459.13,459.13,0,0,1-188.6,26.9,452,452,0,0,1-118-24.2c-4.5-8.1-20.1-38.4-8.4-67.8,6.5-16.3,19.6-28,47.4-41.8,27.4-13.6,75.7-32.7,145.9-36.2-27.5-136.9,19.6-249.1,92.9-275C965.25,415.6,1036.15,431.5,1060.25,474.4Z"/><path class="cls-2" d="M1053.85,485.7c-29,36.7-35.6,86-46.7,130.1-11.9,47.2-25.6,94.3-46.1,138.6a403.63,403.63,0,0,1-40.5,69.3c-1.1,1.6,1.5,3.1,2.6,1.5,27.9-38,47.6-81.1,62.8-125.5,15.4-45.2,25.6-91.8,37.6-137.9,6.8-26.2,15.5-52.4,32.5-73.9,1.1-1.6-1-3.7-2.2-2.2Z"/><path class="cls-2" d="M640,831.6a421.25,421.25,0,0,0,269.1,7.1c1.8-.6,1.1-3.5-.8-2.9a416.74,416.74,0,0,1-267.5-7.1c-1.8-.7-2.6,2.2-.8,2.9Z"/><path class="cls-2" d="M874.75,753a76.49,76.49,0,0,1,40.7,31.6c1,1.6,3.6.1,2.6-1.5a80.14,80.14,0,0,0-42.5-33c-1.9-.6-2.7,2.3-.8,2.9Z"/></g><g id="leg_r" data-name="leg r"><path class="cls-2" d="M574,882.5c8,12,16,24.1,23.9,36.1-51.2,46-57.8,59.1-54,62.3,7.6,6.3,62.1-21.7,67.7-24.6a376.21,376.21,0,0,0,45.8-27.7,215.69,215.69,0,0,0-15-32.4A241.52,241.52,0,0,0,615,857.5C601.25,865.7,587.55,874.1,574,882.5Z"/><path class="cls-3" d="M873.15,646.8a86.51,86.51,0,0,1,8,32.3,88.47,88.47,0,0,1-10.7,45.6,113.7,113.7,0,0,1-14.6,15.6s-16.1,14.2-41.7,25.1c-26.1,11.2-102,24.7-205.1,27.3a171.23,171.23,0,0,0,18,45.4,188.28,188.28,0,0,0,16.8,24.6c-3.8,5-14.6,17.7-36.1,25.7-20.7,7.7-39.7,6.8-47.2,6.2a243.13,243.13,0,0,1-32.2-35.8c-30.3-41.7-37.4-82-38.7-107.9a317.27,317.27,0,0,1,32.9-20.7c30-16.5,57.5-25.5,80.1-32.2,38.9-11.4,76.1-19.3,161.7-33.8C791.15,659.7,828.25,653.5,873.15,646.8Z"/><path class="cls-4" d="M778.15,664c-2.9,19.1-11.1,43.9-36.5,59.3-24.7,15-45.4,8.9-94.9,20.9-35.6,8.6-82.7,20-95.8,45.3-13.7,26.6,12.2,64.1,57.5,94.9a58.67,58.67,0,0,0,13.7-3.5c13.1-5.2,19.5-13.7,21.9-17.4a189.29,189.29,0,0,1-17.3-24.4,168.43,168.43,0,0,1-19.2-46.7c53-2.2,97.5-6.8,131.3-11.2,40.7-5.3,68.9-10.6,95.8-25.8,22.5-12.7,31.5-25.2,34.7-30,9.7-14.7,10.5-28.1,10.9-35.6,1-18.3-5-33.2-10-42.6Z"/><path class="cls-4" d="M871.25,649.3c-2,18.6-9.1,48-37.4,71.2-17.4,14.3-36.1,20.7-109.5,40.5-32.4,8.7-71.6,19-116.2,30.2a1090.49,1090.49,0,0,0,135.9-9.8c34.3-4.7,51.1-8.8,68.5-16.3,16.5-7.1,49.8-21.5,63.4-51.8C889.05,683.9,875.85,657.5,871.25,649.3Z"/><path class="cls-5" d="M608.45,792.7a250.28,250.28,0,0,0,2.7,44.9,262.22,262.22,0,0,0,10.5,43.9,75.92,75.92,0,0,0,11.1-8,74,74,0,0,0,10.5-11.1,217.9,217.9,0,0,1-17.2-26.3A190.82,190.82,0,0,1,608.45,792.7Z"/></g><g id="leg_l" data-name="leg l"><path class="cls-2" d="M603.85,939.9c7.7,15.1,15.3,30.2,23,45.4-49.2,57.8-55.6,74.2-51.9,78.2,7.3,8,59.7-27.3,65.1-30.9a370.62,370.62,0,0,0,44.1-34.8,321.25,321.25,0,0,0-40.8-89.5Q623.55,924.2,603.85,939.9Z"/><path class="cls-3" d="M891.45,643.7a136,136,0,0,1,7.7,40.6,138.58,138.58,0,0,1-10.3,57.3,141.73,141.73,0,0,1-14,19.7,161.5,161.5,0,0,1-40,31.6c-25.1,14-98.1,31.1-197.1,34.3a253.79,253.79,0,0,0,17.3,57,245,245,0,0,0,16.2,30.9,81.49,81.49,0,0,1-80.1,40,284,284,0,0,1-30.9-45c-29.2-52.4-36-103.1-37.2-135.6a318.89,318.89,0,0,1,31.6-26c28.9-20.7,55.2-32.1,77-40.5,37.3-14.3,73.2-24.2,155.5-42.5C812.55,659.8,848.35,652.1,891.45,643.7Z"/><path class="cls-4" d="M800.15,665.3c-2.8,24-10.7,55.1-35.1,74.5-23.7,18.9-43.7,11.2-91.2,26.3-34.2,10.8-79.5,25.2-92.1,57-13.2,33.4,11.7,80.6,55.2,119.2a45.22,45.22,0,0,0,13.2-4.4c12.6-6.5,18.7-17.2,21-21.9a248.53,248.53,0,0,1-35.1-89.4,1130.64,1130.64,0,0,0,126.3-14c39.2-6.6,66.2-13.3,92.1-32.4,21.6-16,30.3-31.7,33.3-37.7,9.3-18.5,10.1-35.3,10.5-44.7a128.77,128.77,0,0,0-9.6-53.5Q844.4,654.65,800.15,665.3Z"/><path class="cls-4" d="M889.55,646.8c-1.9,23.3-8.7,60.3-35.9,89.5-16.8,18-34.7,26-105.2,50.9-31.2,11-68.8,23.9-111.7,38a808.27,808.27,0,0,0,130.7-12.3c33-5.9,49.2-11,65.8-20.4,15.9-9,47.8-27,61-65.2C906.75,690.3,894.05,657.2,889.55,646.8Z"/><path class="cls-5" d="M637.05,827.1a407.26,407.26,0,0,0,2.6,56.4,414.25,414.25,0,0,0,10.1,55.1,80.94,80.94,0,0,0,10.7-10.1,90,90,0,0,0,10.1-13.9,275.69,275.69,0,0,1-16.5-33.1A278.83,278.83,0,0,1,637.05,827.1Z"/></g><g id="hand_r" data-name="hand r"><path class="cls-3" d="M598.15,488.3c-1.9-.9-5.7-2.6-5.6-4.5.2-3.1,10.5-5.2,18.2-5.1,5.2,0,14.8,1.1,26,8.9C626.25,490.9,610.75,493.9,598.15,488.3Z"/><path class="cls-3" d="M838.65,358.6c-19-2.5-36.1,26-37.7,28.6-5.8,9.9-6.5,16.5-10.5,34.6-9.7,44.1-14.9,66.5-29.3,80A62.79,62.79,0,0,1,729,517.4c-17.1,2.7-32.6-3.7-62.8-16.6-25.5-10.9-28.6-14.9-42.5-16.5-7.1-.8-27.8-3.1-41.5,10.2-8.8,8.5-12.7,22.1-9.5,24.9,4.1,3.6,20.9-9.1,21.1-8.8s-5,2.6-9.2,7.8c-2.1,2.5-5.7,7.9-4.4,9.3,2.3,2.8,16.4-14.2,31.9-11.2,10.6,2,12.6,11.6,24.9,13.4a30.34,30.34,0,0,0,17.5-3,131.73,131.73,0,0,0,34.9,27.2c9.8,5.2,44.4,23.1,86.7,12.7,44.9-11,67.5-46.1,74.6-57.1,4-6.3,33.4-53.3,19.2-106C867.35,395.2,858.25,361.2,838.65,358.6Z"/><path class="cls-6" d="M836.65,358.9c-6.5,3.4,6.1,27,4.5,60.8-1.5,32.5-15.4,56.5-21.6,67.5-8.4,14.7-19.5,33.9-41.6,46.4-29.7,16.8-66.5,14.3-92.7,2.9-7.8-3.4-15.7-14.4-32.9-21.1-7.5-2.9-13.4-4.1-20.3-5.5-16.9-3.3-31.9-6.3-45.8.7-6.6,3.4-12.1,8.6-11.7,9.3s8.1-3.2,14.9-6.9c-8.2,10.9-9.5,14-8.9,14.6s3.2-1.7,9.6-5.3c6.9-3.8,11.9-6.5,18-6a22.59,22.59,0,0,1,6.9,1.9c5.5,2.4,6.8,5.2,12.3,8a30.81,30.81,0,0,0,7.7,2.7,33.17,33.17,0,0,0,18.5-1.5c7.6,8,42.5,43.4,93.6,42.7,26.3-.4,45.6-10.2,53.2-14.1,41.7-21.7,58.3-60.2,62.5-70.8,13-32.8,17.6-81.4-6.2-111.9C851,365.9,841.15,356.6,836.65,358.9Z"/><path class="cls-2" d="M574.45,519.4a42.24,42.24,0,0,1,15.1-13.7c1.3-.7.1-2.6-1.1-1.9a45.12,45.12,0,0,0-15.9,14.5c-.9,1.2,1.1,2.3,1.9,1.1Z"/><path class="cls-2" d="M575.65,506.5c3.9-6.1,10.2-9.3,16.5-12.4,1.3-.6.2-2.6-1.1-1.9-6.7,3.2-13.3,6.7-17.4,13.2-.7,1.2,1.2,2.3,2,1.1Z"/><path class="cls-7" d="M865.35,394.9a346.82,346.82,0,0,1-9,41.9c-9.4,34-17.9,64.6-40.1,88.9-27.5,30-64.8,38.2-86.2,40.7a98.62,98.62,0,0,0,36.3,1.9c60-8.4,92.4-72.9,101.2-101.1a107.53,107.53,0,0,0,5.1-29.4A109.48,109.48,0,0,0,865.35,394.9Z"/><path class="cls-8" d="M614.05,515.3a90,90,0,0,0,23.1,7.7,91.53,91.53,0,0,0,19.8,1.5c-13.7,7.3-20.8,6.4-24.8,4-2.5-1.5-5.3-4.5-13-9.8C617.05,517.2,615.25,516,614.05,515.3Z"/></g><g id="table"><path class="cls-9" d="M411.85,679.7V823.8c0,5.8,9,5.8,9,0V679.7c0-5.7-9-5.8-9,0Z"/><path class="cls-9" d="M575.45,677.8v23.1c0,5.8,9,5.8,9,0V677.8c0-5.8-9-5.8-9,0Z"/><path class="cls-3" d="M287.65,673.8q72.75-68.55,145.6-137.2l235.4,4.2q-19.2,66.6-38.4,133.1Q458.95,673.75,287.65,673.8Z"/><path class="cls-9" d="M290.55,679h336.7c5.8,0,5.8-9,0-9H290.55c-5.8,0-5.8,9,0,9Z"/><path class="cls-9" d="M316.25,677.5v382c0,5.8,9,5.8,9,0v-382c0-5.8-9-5.8-9,0Z"/><path class="cls-9" d="M590.55,677.5v382c0,5.8,9,5.8,9,0v-382c0-5.8-9-5.8-9,0Z"/><path class="cls-9" d="M320.75,863.2h271.8c5.8,0,5.8-9,0-9H320.75c-5.8,0-5.8,9,0,9Z"/><path class="cls-9" d="M667.45,540.8c-11.4,44.5-24.5,88.6-39.5,132-1.3,3.7,4.5,5.2,5.8,1.6q22.5-65.25,39.5-132c.9-3.7-4.8-5.3-5.8-1.6Z"/><g id="lines"><path class="cls-9" d="M188.65,1069.3h159.2c5.8,0,5.8-9,0-9H188.65c-5.8,0-5.8,9,0,9Z"/><path class="cls-9" d="M370.15,1067.3h36.7c5.8,0,5.8-9,0-9h-36.7c-5.8,0-5.8,9,0,9Z"/><path class="cls-9" d="M529.35,1068.6h143.5c5.8,0,5.8-9,0-9H529.35c-5.8,0-5.8,9,0,9Z"/><path class="cls-9" d="M705.55,1065.4h25.6c5.8,0,5.8-9,0-9h-25.6c-5.8,0-5.8,9,0,9Z"/><path class="cls-9" d="M140.45,1037.6h62c5.8,0,5.8-9,0-9h-62c-5.8,0-5.8,9,0,9Z"/></g></g><g id="laptop"><path class="cls-3" d="M577.85,654.9q-92.55-2.4-185.2-4.7,54.9-52.5,109.7-105.1l126.7,6.6C612,586.2,595,620.5,577.85,654.9Z"/><path class="cls-3" d="M500.25,544.4q-53.85,52.05-107.7,104.2-2.4-83.4-4.9-166.9l109.2-69Q498.35,478.55,500.25,544.4Z"/><path class="cls-2" d="M391,487q4.35,74.25,5.8,148.7a.75.75,0,0,0,1.5,0q-1.5-74.4-5.8-148.7c-.1-.9-1.6-.9-1.5,0Z"/><path class="cls-2" d="M391.75,487.2l100.5-65.4a.76.76,0,0,0-.8-1.3L391,485.9c-.8.6-.1,1.9.8,1.3Z"/><path class="cls-2" d="M491.85,421.7c-.1,39.9,1.1,79.9,3.7,119.7.1,1,1.6,1,1.5,0q-3.75-59.85-3.7-119.7a.75.75,0,0,0-1.5,0Z"/><path class="cls-2" d="M397.75,637.8q49.2-47.55,98.5-95c.7-.7-.4-1.7-1.1-1.1q-49.2,47.55-98.5,95c-.6.7.4,1.8,1.1,1.1Z"/><path class="cls-2" d="M549.65,620.8c6.1-9.7,12.2-19.5,18.1-29.4.5-.8-.8-1.6-1.3-.8-5.9,9.9-12,19.7-18.1,29.4-.6.8.7,1.6,1.3.8Z"/><path class="cls-2" d="M567.35,591.1c7.9.3,15.8.3,23.7-.1a.75.75,0,0,0,0-1.5c-7.9.3-15.8.3-23.7.1a.75.75,0,1,0,0,1.5Z"/><path class="cls-2" d="M590.05,590.6c-4.5,9.8-9.1,19.6-13.7,29.4-.4.9.9,1.6,1.3.8,4.6-9.8,9.2-19.6,13.7-29.4.4-1-.9-1.7-1.3-.8Z"/><path class="cls-2" d="M549.15,621.6c8.8,1.3,18.1.7,27,.3a.75.75,0,0,0,0-1.5c-8.7.4-17.9,1-26.6-.2-1-.2-1.4,1.3-.4,1.4Z"/><path class="cls-2" d="M582,590.7a258,258,0,0,1-13.8,29.1c-.5.8.8,1.6,1.3.8a294.41,294.41,0,0,0,14-29.5c.3-.9-1.1-1.3-1.5-.4Z"/><path class="cls-2" d="M437.05,636q33-40.8,68.3-79.8c.6-.7-.4-1.8-1.1-1.1Q469,594,436,634.9c-.6.8.5,1.8,1.1,1.1Z"/><path class="cls-2" d="M463.65,637.7q29.55-41.25,62.3-79.9c.6-.7-.4-1.8-1.1-1.1q-32.85,38.85-62.5,80.2c-.6.8.7,1.6,1.3.8Z"/><path class="cls-2" d="M492.25,641.8a888.74,888.74,0,0,1,56-82.7c.6-.8-.7-1.5-1.3-.8A888.74,888.74,0,0,0,491,641c-.5.8.8,1.6,1.3.8Z"/><path class="cls-2" d="M516.25,644.3a519,519,0,0,1,59.5-88c.6-.7-.4-1.8-1.1-1.1a523,523,0,0,0-59.8,88.3c-.4.9.9,1.7,1.4.8Z"/><path class="cls-2" d="M449.85,619.8c25.6-2.7,51.2.5,76.7,3.9,1,.1.9-1.4,0-1.5-25.4-3.4-51-6.7-76.7-3.9-.9.1-.9,1.6,0,1.5Z"/><path class="cls-2" d="M462.75,605.2a318,318,0,0,1,72.2,5.5c.9.2,1.3-1.3.4-1.4a321.46,321.46,0,0,0-72.6-5.5c-.9-.1-.9,1.4,0,1.4Z"/><path class="cls-2" d="M474.35,591.1a227.81,227.81,0,0,1,69.3,6.2c.9.2,1.3-1.2.4-1.4a227,227,0,0,0-69.7-6.3c-1,.1-1,1.6,0,1.5Z"/><path class="cls-2" d="M486.35,577a337.31,337.31,0,0,1,66.5,6.9c.9.2,1.3-1.3.4-1.4a341.33,341.33,0,0,0-66.9-6.9c-.9-.1-.9,1.4,0,1.4Z"/><path class="cls-2" d="M498.25,563.9a312,312,0,0,1,63.2,7.6c.9.2,1.3-1.2.4-1.4a309.66,309.66,0,0,0-63.6-7.6c-1-.1-1,1.4,0,1.4Z"/><path class="cls-2" d="M566.85,579.1c-9.8,14.4-19.5,28.8-29.3,43.2-.5.8.8,1.6,1.3.8,9.8-14.4,19.5-28.8,29.3-43.2.6-.9-.7-1.6-1.3-.8Z"/><path class="cls-2" d="M401.25,557.3c12.5-5.3,26-2.3,39.2-2.5a62.23,62.23,0,0,0,31.2-8.8.76.76,0,0,0-.8-1.3c-11.7,6.9-24.1,9.1-37.5,8.5-11.2-.5-22.3-1.6-32.9,2.9-.8.3-.1,1.6.8,1.2Z"/><path class="cls-2" d="M435,551.1c21.4-12.1,31.3-37.6,53.6-48.3.9-.4.1-1.7-.8-1.3-22.4,10.8-32.2,36.2-53.6,48.3a.76.76,0,0,0,.8,1.3Z"/><path class="cls-2" d="M462.15,479.8c-3.7-2.9-3.1-7.6-1-11.3a13.91,13.91,0,0,1,4.2-4.8c3.1-2,6-.4,8.4,1.7.7.6,1.8-.4,1.1-1.1-5-4.2-9.7-3.8-13.8,1.6-3.3,4.4-5,11,0,15,.8.6,1.9-.5,1.1-1.1Z"/></g><g id="torso"><path class="cls-10" d="M770.15,406.7c-27.4,30.4-34.8,63.8-38.8,82.7-7.3,35,.4,49,.9,115.5.2,28.3-1,51.2-1.9,65.6,6.2,4.8,44.6,33.4,95.9,24,38-6.9,60.9-30.7,68.1-38.8,1.7-9.5,4.1-23.5,6.9-40.5,14.8-91.7,22.1-138.2,12.9-171.5-5.5-20.2-19.1-52.2-57.7-85.3C840.25,361.8,801.35,372.2,770.15,406.7Z"/><path class="cls-4" d="M798.05,388.3a464.38,464.38,0,0,1,17.6,70.5c7.9,47.1,19.8,117.7-13.7,186.1a214.24,214.24,0,0,1-32,47.7,130.21,130.21,0,0,0,62-.7,132.14,132.14,0,0,0,61.4-35.9c6.5-37.2,11.7-69.1,15.7-94,6.9-43.8,8.5-57.1,7.8-75.8-.8-24-1.9-49.2-16.3-76.4a138.34,138.34,0,0,0-45.1-49.6,115,115,0,0,0-37.9,13.7A126.6,126.6,0,0,0,798.05,388.3Z"/><path class="cls-11" d="M911.65,436c-1.8.1,2,27.8-3.9,66-10.9,70.7-45.9,119.7-59.4,137.1a298.2,298.2,0,0,1-54.9,54.2,107,107,0,0,0,35.9-.7c33.7-6.3,55.1-27,63.3-35.9,2.1-12.2,5.5-31.3,9.8-54.9,10.1-55.2,12.1-61.8,13.7-79C920.55,475.9,913.75,436,911.65,436Z"/></g><g id="hand_l" data-name="hand l"><path class="cls-3" d="M594,510.3c-1.9-1.3-5.7-3.7-5.3-5.7.8-3.2,12.3-3.7,20.6-2.3,5.6.9,15.8,3.8,26.5,13.9C623.75,517.9,606.45,518.4,594,510.3Z"/><path class="cls-3" d="M876.25,414.5c-20.1-5.9-43.6,21.2-45.7,23.8-8,9.5-9.9,16.3-17.4,34.7-18.2,45-27.7,67.7-45.7,79.5-16.1,10.6-33,11-37.5,11-18.9-.1-34.5-9.5-64.9-28.3-25.6-15.9-28.2-20.7-43-24.7-7.5-2-29.5-8-46.6,3.7-10.9,7.4-17.6,21.2-14.6,24.7,3.8,4.5,24.2-6.1,24.3-5.7.1.2-5.9,1.9-11.3,6.7-2.7,2.3-7.5,7.3-6.4,9.1,2,3.4,20.2-12.2,36.4-6.4,11,3.9,11.6,14.4,24.5,18.5,7.6,2.4,14.8,1.1,19.4-.2a141.23,141.23,0,0,0,32.9,34.7c9.7,7.2,43.9,32,91.4,28.3,50.4-3.9,81-37.2,90.5-47.5,5.5-5.9,45.4-50.6,39.3-108.8C901,458.1,897.05,420.7,876.25,414.5Z"/><path class="cls-6" d="M874.05,414.5c-7.6,2.5,1.9,29.6-5.8,65.1-7.3,34.1-26.5,57.1-35.2,67.6-11.7,14.1-27,32.5-53.1,41.9-35,12.6-74.3,3.7-100.6-12.8-7.8-5-14.4-17.9-31.9-28-7.6-4.4-13.7-6.6-21-9.3-17.6-6.4-33.4-12.2-49.5-7.1-7.7,2.4-14.6,7-14.2,7.8s9.3-2,17.3-4.7c-10.7,10.1-12.7,13.2-12.2,14s3.8-1.3,11.3-3.9c8.2-2.9,13.9-4.8,20.5-3.2a24.74,24.74,0,0,1,7.2,3.2c5.5,3.4,6.4,6.7,11.8,10.6a32.58,32.58,0,0,0,7.9,4.2c3.3,1.3,10.3,3.4,20.2,1.6,6.8,9.8,38.3,53.2,93.6,61.2,28.5,4.1,51-2.9,59.9-5.8,48.8-15.8,73.5-53.6,79.9-64.1,19.8-32.4,33.3-83,12.9-119.4C888.25,424.3,879.25,412.8,874.05,414.5Z"/><path class="cls-2" d="M562.65,539.2a45.73,45.73,0,0,1,18.7-11.9,1.14,1.14,0,0,0-.6-2.2,49.88,49.88,0,0,0-19.7,12.5c-1,1.1.6,2.7,1.6,1.6Z"/><path class="cls-2" d="M566.25,525.8c5.3-5.9,12.7-8.2,20.1-10.3a1.14,1.14,0,0,0-.6-2.2c-7.7,2.3-15.5,4.8-21,10.9a1.1,1.1,0,1,0,1.5,1.6Z"/><path class="cls-7" d="M898.75,457.5a389.47,389.47,0,0,1-17,42.8c-16.1,34.3-30.6,65.2-58.9,87.1-34.9,27-76.7,29.3-100.2,28.2a109.25,109.25,0,0,0,38.9,8.3c66.2,1.4,112.6-61.3,127-89.5a112.74,112.74,0,0,0,10.2-76.9Z"/><path class="cls-8" d="M606.25,541.6a98.35,98.35,0,0,0,44.7,17c-16.1,5.3-23.6,3.2-27.5,0-2.4-2-4.9-5.7-12.4-12.6C609.15,544.1,607.45,542.6,606.25,541.6Z"/></g><g id="head"><path class="cls-12" d="M721.25,212.8c-1.1,6.4-2.2,12.8-3.1,19.5a556.77,556.77,0,0,0-5.6,76.8c5.5-.6,10.9-1.2,16.4-1.7a67.56,67.56,0,0,0,10.1,43.9,66.63,66.63,0,0,0,33.7,26.5c-.6,9.8-1.1,19.5-1.7,29.3a234.13,234.13,0,0,1,44.2-31,225,225,0,0,1,39.3-16.6,100.71,100.71,0,0,1-19.9-39.8c-3.6-15-2.9-27.9-2.2-39.3a182,182,0,0,1,3.9-28.2c4.7-21.4-7.6-55.3-32.1-67.5C780.05,172.6,744,182.8,721.25,212.8Z"/><path class="cls-9" d="M726.65,308.1c2.8-.4,5.7-.7,8.5-1,1-.1,1-1.6,0-1.5-3,.3-5.9.7-8.9,1.1-.9,0-.5,1.5.4,1.4Z"/><path class="cls-13" d="M809.33,231.17c-11.18,3.05-13.21,13.36-27.35,34.88-14.32,21.82-23.37,35.48-39.53,43.44-10.44,5.11-15.62,3.73-20.23,10.31-8,11.4-2.59,30.17,2.12,39.8,5.45,11.1,13.76,17.79,20.6,23.29a92.08,92.08,0,0,0,16.81,10.71c-4.52-7.37-4.8-9.63-4.25-10.32,1.48-1.57,7.76,6.88,15.15,5.8,2.13-.3,5.92-1.57,14.32-15.62,5.73-9.54,9.61-16.12,12.19-25.55,5.64-20.25-2.3-25.75,0-52.38.37-4,3-35.57,13.49-37.63,3.79-.79,7.67,2.55,9.52,5.11,3.88,5.4,3.41,14.05-1.39,21.52,1.57-1.18,16.63-12,16.44-29.58,0-2.75-.09-12.87-7.29-19.46C821.7,228,810.25,231,809.33,231.17Z"/><ellipse class="cls-9" cx="736.25" cy="266.3" rx="4.2" ry="7.5"/><ellipse class="cls-9" cx="704.25" cy="269.8" rx="4.2" ry="7.5"/><path class="cls-9" d="M698,257.5a6.5,6.5,0,0,1,9.9-.4c1.4,1.4,3.5-.8,2.1-2.1a9.66,9.66,0,0,0-14.2.4c-1.1,1.5,1,3.6,2.2,2.1Z"/><path class="cls-9" d="M730.75,252.3a7.8,7.8,0,0,1,11.1.8c1.3,1.4,3.4-.7,2.1-2.1a11,11,0,0,0-15.4-.8c-1.4,1.2.7,3.3,2.2,2.1Z"/><path class="cls-14" d="M716.61,224.7a81.36,81.36,0,0,1,11.72-31.2c2.73-4.3,8.59-13.4,17.89-19.6,17.78-11.7,45.16-10.8,65.06,3.6,19.51,14.1,29.2,39.3,25,64.3Q776.38,233.4,716.61,224.7Z"/><path class="cls-9" d="M653.25,225.6q91.05,11.7,182.2,23.3c5.7.7,5.7-8.3,0-9q-91.05-11.7-182.2-23.3c-5.7-.8-5.7,8.2,0,9Z"/><path class="cls-14" d="M769.25,166.61c16.28,3.44,28.59,16.2,30.68,31.48,1.88,13.37-4.17,26.94-15.65,35.24,18.05,2.33,36.21,4.76,54.26,7.08a60.14,60.14,0,0,0,.63-20c-2.71-19.44-14.3-31.89-18-35.64-4.07-4-18.47-17.62-39.87-18.83A57.65,57.65,0,0,0,769.25,166.61Z"/></g></svg>