<svg xmlns="http://www.w3.org/2000/svg" width="410.345" height="343.763" viewBox="0 0 410.345 343.763">
  <g id="wecoplay_logo" transform="translate(0 0.06)">
    <g id="Group_1" data-name="Group 1" transform="translate(44.783 -0.06)">
      <path id="Path_1" data-name="Path 1" d="M243.432,62.723a5.173,5.173,0,1,0-8.851-5.087A41.806,41.806,0,0,0,220,55.1a42.71,42.71,0,0,0-12.327,1.784,5.177,5.177,0,1,0-9.164,4.328c-5,3.486-8.085,8.174-8.085,13.344V85.94l20.831,20.831,20.587-16.427h17.73V74.558C249.568,70.1,247.265,66,243.432,62.723Zm-1.977,17.765a3.857,3.857,0,0,1-3.86,3.857H206.5a3.857,3.857,0,0,1-3.853-3.857V74.136a3.857,3.857,0,0,1,3.86-3.857H237.6a3.857,3.857,0,0,1,3.86,3.857Z" transform="translate(-170.985 -35.145)" fill="#231f20"/>
      <path id="Path_2" data-name="Path 2" d="M186.82,177.247l20.831-16.62L186.82,135.64Z" transform="translate(-167.385 -88.994)" fill="#231f20"/>
      <path id="Path_3" data-name="Path 3" d="M861.958,49.7c0-.107.031-.206.031-.313a5.187,5.187,0,0,0-10.374,0c0,.107.024.206.031.313-13.87,1.609-24.406,9.556-24.406,19.143V84.634H848.69L867.32,99.3l19.057-19.074V68.843C886.377,59.256,875.828,51.309,861.958,49.7Zm12.193,25.073a3.857,3.857,0,0,1-3.857,3.857H839.189a3.857,3.857,0,0,1-3.86-3.857V68.42a3.857,3.857,0,0,1,3.86-3.857h31.095a3.857,3.857,0,0,1,3.857,3.857Z" transform="translate(-588.903 -29.429)" fill="#231f20"/>
      <path id="Path_4" data-name="Path 4" d="M867.143,117.712a3.241,3.241,0,1,0-6.483,0" transform="translate(-610.835 -75.545)" fill="#231f20"/>
      <path id="Path_5" data-name="Path 5" d="M938.183,117.712a3.242,3.242,0,0,0-6.483,0" transform="translate(-657.456 -75.545)" fill="#231f20"/>
      <path id="Path_6" data-name="Path 6" d="M436.282,55.089a5.177,5.177,0,0,0-9.625,0c-14.032,1.519-24.749,9.515-24.749,19.177l-.048,15.365h59.172l.048-15.365C461.083,64.6,450.341,56.595,436.282,55.089Zm14.626,24.684a3.857,3.857,0,0,1-3.86,3.857H415.96a3.857,3.857,0,0,1-3.857-3.857V73.421a3.857,3.857,0,0,1,3.857-3.857h31.095a3.857,3.857,0,0,1,3.86,3.857Z" transform="translate(-309.744 -34.43)" fill="#231f20"/>
      <path id="Path_7" data-name="Path 7" d="M454.633,211.043H133.88L196,161.42H392.522Zm-300.616-7.054H434.51l-44.46-35.495H198.476Z" transform="translate(-133.88 -106.356)" fill="#231f20"/>
      <path id="Path_8" data-name="Path 8" d="M886.433,43.376a3.2,3.2,0,0,0-2.977,2.045H843.438a3.211,3.211,0,1,0,0,2.327h40.018a3.2,3.2,0,1,0,2.977-4.372Z" transform="translate(-595.462 -28.887)" fill="#231f20"/>
      <path id="Path_9" data-name="Path 9" d="M444.7,114.47a3.241,3.241,0,1,0,3.241,3.241A3.241,3.241,0,0,0,444.7,114.47Zm0,5.218a1.977,1.977,0,1,1,1.977-1.977A1.977,1.977,0,0,1,444.7,119.688Z" transform="translate(-335.732 -75.545)" fill="#231f20"/>
      <path id="Path_10" data-name="Path 10" d="M519.038,114.47a3.241,3.241,0,1,0,2.294.948A3.242,3.242,0,0,0,519.038,114.47Zm0,5.218a1.976,1.976,0,1,1,1.4-.575A1.976,1.976,0,0,1,519.038,119.688Z" transform="translate(-384.518 -75.545)" fill="#231f20"/>
      <path id="Path_11" data-name="Path 11" d="M255.646,118.78H253.3a2.061,2.061,0,0,1,.1.481,1.98,1.98,0,0,1-3.956,0,1.763,1.763,0,0,1,.1-.481h-2.351a4.4,4.4,0,0,0-.107.935,4.338,4.338,0,0,0,8.673,0,4.4,4.4,0,0,0-.107-.935Z" transform="translate(-208.168 -78.373)" fill="#231f20"/>
      <path id="Path_12" data-name="Path 12" d="M301.11,118.78h-2.348a2.065,2.065,0,0,1,.093.481,1.977,1.977,0,1,1-3.953,0,1.9,1.9,0,0,1,.1-.481h-2.351a4.634,4.634,0,0,0-.107.935,4.338,4.338,0,1,0,8.676,0A4.4,4.4,0,0,0,301.11,118.78Z" transform="translate(-238.002 -78.373)" fill="#231f20"/>
      <path id="Path_13" data-name="Path 13" d="M940.21,158.863l19.067,15V135.64Z" transform="translate(-661.803 -88.994)" fill="#231f20"/>
      <path id="Path_14" data-name="Path 14" d="M484.064,5.619a4.372,4.372,0,1,0-5.5,4.207v12.54h2.231V9.83a4.359,4.359,0,0,0,3.269-4.211Z" transform="translate(-357.952 -1.23)" fill="#231f20"/>
      <path id="Path_15" data-name="Path 15" d="M647.119,60.767a39.859,39.859,0,0,0-9.625,0c-14.032,1.519-24.749,9.515-24.749,19.177L612.7,95.31h59.161l.052-15.365C671.927,70.279,661.171,62.273,647.119,60.767Zm14.626,24.684a3.857,3.857,0,0,1-3.86,3.857H626.79a3.857,3.857,0,0,1-3.86-3.857V79.1a3.857,3.857,0,0,1,3.86-3.857h31.095a3.857,3.857,0,0,1,3.86,3.857Z" transform="translate(-448.11 -40.108)" fill="#231f20"/>
      <path id="Path_16" data-name="Path 16" d="M655.505,114.47a3.241,3.241,0,1,0,3.238,3.241A3.241,3.241,0,0,0,655.505,114.47Z" transform="translate(-474.071 -75.545)" fill="#231f20"/>
      <path id="Path_17" data-name="Path 17" d="M733.083,117.712a3.241,3.241,0,1,0-6.483,0" transform="translate(-522.857 -75.545)" fill="#231f20"/>
    </g>
    <path id="Path_18" data-name="Path 18" d="M146.366,333,130.331,471.5H85.369q-6.187-31.916-10.9-72.626Q72.317,416.337,64.425,471.5h-44.7L3.6,333H38.586l3.809,48.323,3.678,46.711Q48.08,391.78,56.031,333H93.423q.753,6.074,3.929,45.676l3.981,52.7Q104.406,381.1,111.38,333Z" transform="translate(-3.6 -219.017)" fill="#231f20"/>
    <path id="Path_19" data-name="Path 19" d="M454.51,333h60.048v27.712H490.524v26.262h22.5v26.348h-22.5v30.466h26.43V471.5H454.51Z" transform="translate(-299.513 -219.017)" fill="#231f20"/>
    <path id="Path_20" data-name="Path 20" d="M713.745,328.1c9.91,0,18.139,1.9,24.457,5.658,6.229,3.7,10.178,8.109,12.079,13.478,2.021,5.713,3.049,14.929,3.049,27.393v9.625H724.37V363.715c0-9.968-.777-13-1.454-14.53-.78-1.757-2.9-4.7-8.315-4.7-5.991,0-8.178,3.41-8.937,5.445-.612,1.616-1.423,4.926-1.423,14.932v64.328c0,9.642.818,12.866,1.437,14.437.773,1.99,2.929,5.328,8.676,5.328,5.575,0,7.741-3.317,8.535-5.3.688-1.719,1.492-5.087,1.492-15.812V413.981h28.95v1.873c0,13.891-.959,23.77-2.85,29.366-1.753,5.2-5.8,9.889-12.014,13.939-6.311,4.125-14.282,6.187-23.7,6.187-9.889,0-18.091-1.777-24.368-5.283-6.1-3.406-10.017-7.951-11.973-13.891-2.1-6.37-3.159-16.259-3.159-29.393V376.324a179.627,179.627,0,0,1,.993-21.972,28.123,28.123,0,0,1,5.469-12.808,30.679,30.679,0,0,1,12.694-9.766,47.725,47.725,0,0,1,19.318-3.678m0-3.53A50.89,50.89,0,0,0,693,328.554a34.222,34.222,0,0,0-14.114,10.9,31.406,31.406,0,0,0-6.119,14.417,180.062,180.062,0,0,0-1.031,22.45v40.462q0,20.356,3.338,30.5t13.595,15.867q10.268,5.727,26.09,5.73,15.228,0,25.622-6.765t13.43-15.767q3.039-8.989,3.035-30.493v-5.4H720.844v17.411q0,11.405-1.237,14.492t-5.263,3.094q-4.194,0-5.39-3.094t-1.2-13.172V364.86q0-10.518,1.2-13.684t5.648-3.166c2.623,0,4.321.873,5.091,2.606s1.152,6.1,1.152,13.1v24.062h36.014V374.629q0-19.394-3.252-28.568T740,330.726Q729.654,324.577,713.745,324.57Z" transform="translate(-442.072 -213.485)" fill="#231f20"/>
    <path id="Path_21" data-name="Path 21" d="M996.611,328.1a48.962,48.962,0,0,1,18.638,3.372,29.073,29.073,0,0,1,12.746,9.745,29.489,29.489,0,0,1,5.747,14.145c.663,5.538,1,15.468,1,29.521v23.708c0,13.75-.323,23.546-.959,29.16a29.512,29.512,0,0,1-18.04,24.065,47.662,47.662,0,0,1-19.115,3.554A48.916,48.916,0,0,1,978,462a29.777,29.777,0,0,1-18.5-23.894c-.663-5.534-1-15.468-1-29.517V384.873c0-13.7.323-23.509.962-29.156a29.507,29.507,0,0,1,18.033-24.069,47.632,47.632,0,0,1,19.119-3.554m-.086,120.867a7.943,7.943,0,0,0,8.068-5.713c.512-1.619,1.189-5.094,1.189-16.548V363.066c0-9.168-.687-12.117-1.313-13.66a7.8,7.8,0,0,0-7.686-4.922,8.368,8.368,0,0,0-7.219,3.716c-1.1,1.6-2.121,4.513-2.121,14.867v64.668c0,11.213.632,14.465,1.182,16.046,1.152,3.3,4.032,5.187,7.906,5.187m.086-124.4a50.909,50.909,0,0,0-20.532,3.85,33.1,33.1,0,0,0-20.14,26.908q-.986,8.676-.987,29.562v23.7q0,21.381,1.031,29.94a33.317,33.317,0,0,0,20.662,26.722,52.209,52.209,0,0,0,19.971,3.633,50.9,50.9,0,0,0,20.528-3.85,33.094,33.094,0,0,0,20.15-26.9q.98-8.683.98-29.562v-23.7q0-21.388-1.031-29.94a33.287,33.287,0,0,0-20.656-26.716,52.273,52.273,0,0,0-19.975-3.64Zm-.086,120.87q-3.592,0-4.575-2.822t-.987-14.884V363.066q0-10.694,1.5-12.873a4.933,4.933,0,0,1,4.317-2.183q3.334,0,4.407,2.7t1.066,12.357v63.64q0,12.234-1.031,15.468a4.453,4.453,0,0,1-4.706,3.248Z" transform="translate(-627.938 -213.485)" fill="#231f20"/>
    <g id="Group_2" data-name="Group 2" transform="translate(91.494 268.478)">
      <path id="Path_22" data-name="Path 22" d="M272.561,825.38v32.295H269.77V782.45h23.509q11.687,0,17.981,5.844t6.3,15.575q0,9.828-6.277,15.661t-18.005,5.844Zm0-2.784h20.717q10.694,0,16.094-5.325a17.886,17.886,0,0,0,5.4-13.275,18.1,18.1,0,0,0-5.376-13.461q-5.376-5.3-16.118-5.3H272.561Z" transform="translate(-269.77 -782.45)" fill="#231f20"/>
      <path id="Path_23" data-name="Path 23" d="M457.489,854.887h40.661v2.788h-43.5V782.45h2.839Z" transform="translate(-391.099 -782.45)" fill="#231f20"/>
      <path id="Path_24" data-name="Path 24" d="M650.6,835.2H613.867l-8.422,22.47H602.4l28.1-75.224h3.41l28.159,75.224h-3.046Zm-35.7-2.8h34.666l-15.757-42.1-1.447-4.393h-.309l-1.4,4.393Z" transform="translate(-488.061 -782.45)" fill="#231f20"/>
      <path id="Path_25" data-name="Path 25" d="M800.646,824.249l1.344,2.578,1.392-2.578,24.956-41.8h3.41L803.485,829.1v28.575h-2.839V829.1L772.38,782.45h3.41Z" transform="translate(-599.612 -782.45)" fill="#231f20"/>
    </g>
    <path id="Path_26" data-name="Path 26" d="M414.229,158.46v10.12a6.139,6.139,0,0,1-12.278,0V158.46" transform="translate(-265.02 -104.474)" fill="#231f20"/>
    <path id="Path_27" data-name="Path 27" d="M550.708,158.46v10.12a6.139,6.139,0,0,1-12.278,0V158.46" transform="translate(-354.587 -104.474)" fill="#231f20"/>
    <path id="Path_28" data-name="Path 28" d="M625.1,158.46v10.12a6.139,6.139,0,0,1-12.279,0V158.46" transform="translate(-403.405 -104.474)" fill="#231f20"/>
    <path id="Path_29" data-name="Path 29" d="M761.558,158.46v10.12a6.139,6.139,0,0,1-12.279,0V158.46" transform="translate(-492.958 -104.474)" fill="#231f20"/>
    <path id="Path_30" data-name="Path 30" d="M246.979,203.46l7.157,7.157a6.14,6.14,0,0,1-8.683,8.683l-7.153-7.16" transform="translate(-157.624 -134.005)" fill="#231f20"/>
    <path id="Path_31" data-name="Path 31" d="M918.114,202.94l-7.157,7.16a6.139,6.139,0,0,0,8.686,8.673l7.153-7.16" transform="translate(-597.953 -133.664)" fill="#231f20"/>
    <path id="Path_32" data-name="Path 32" d="M186.82,178.326v14.826l43.927-36.114h8.532V150.05l-40.235,5.823Z" transform="translate(-122.602 -98.511)" fill="#231f20"/>
    <path id="Path_33" data-name="Path 33" d="M895.529,178.326v14.826L851.6,157.038H843.07V150.05l40.235,5.823Z" transform="translate(-553.271 -98.511)" fill="#231f20"/>
  </g>
</svg>
