<svg xmlns="http://www.w3.org/2000/svg" width="142.725" height="138.333" viewBox="0 0 142.725 138.333">
  <g id="wecoplay_logo_inverted" transform="translate(0 0)">
    <g id="white-logo" transform="translate(0 0)">
      <g id="Group_3" data-name="Group 3" transform="translate(17.877)">
        <path id="Path_37" data-name="Path 37" d="M207.976,55.537a2.065,2.065,0,1,0-3.533-2.031,16.683,16.683,0,0,0-5.817-1.011,17.076,17.076,0,0,0-4.921.709,2.067,2.067,0,1,0-3.658,1.728,6.661,6.661,0,0,0-3.227,5.327V64.8l8.315,8.315,8.218-6.558h7.078v-6.3A6.271,6.271,0,0,0,207.976,55.537Zm-.789,7.091a1.54,1.54,0,0,1-1.54,1.54H193.24a1.541,1.541,0,0,1-1.538-1.54V60.093a1.54,1.54,0,0,1,1.54-1.54h12.413a1.54,1.54,0,0,1,1.541,1.538h0Z" transform="translate(-179.062 -44.528)" fill="#fff"/>
        <path id="Path_38" data-name="Path 38" d="M186.82,152.309l8.315-6.634L186.82,135.7Z" transform="translate(-179.062 -117.079)" fill="#fff"/>
        <path id="Path_39" data-name="Path 39" d="M837.5,45.105c0-.043.012-.082.012-.125a2.071,2.071,0,1,0-4.141,0c0,.043.01.082.012.125-5.537.642-9.742,3.815-9.742,7.642v6.3H832.2l7.437,5.854,7.608-7.614V52.747C847.247,48.92,843.037,45.748,837.5,45.105Zm4.867,10.009a1.54,1.54,0,0,1-1.54,1.54H828.41a1.54,1.54,0,0,1-1.541-1.538h0V52.578a1.54,1.54,0,0,1,1.54-1.54h12.414a1.54,1.54,0,0,1,1.54,1.54Z" transform="translate(-749.579 -37.014)" fill="#fff"/>
        <path id="Path_40" data-name="Path 40" d="M859.648,114.474a1.294,1.294,0,1,0-2.588,0h0" transform="translate(-774.091 -97.641)" fill="#fff"/>
        <path id="Path_41" data-name="Path 41" d="M930.728,114.474a1.294,1.294,0,1,0-2.588,0h0" transform="translate(-839.74 -97.641)" fill="#fff"/>
        <path id="Path_42" data-name="Path 42" d="M412,51.795a2.067,2.067,0,0,0-3.842,0c-5.6.607-9.88,3.8-9.88,7.655l-.019,6.134h23.621l.019-6.134C421.9,55.6,417.613,52.4,412,51.795Zm5.846,9.859a1.54,1.54,0,0,1-1.54,1.54H403.889a1.54,1.54,0,0,1-1.54-1.54h0V59.118a1.54,1.54,0,0,1,1.54-1.54H416.3a1.54,1.54,0,0,1,1.545,1.538h0Z" transform="translate(-368.913 -43.554)" fill="#fff"/>
        <path id="Path_43" data-name="Path 43" d="M237.24,179.939H130.28L151,160.13h65.532Zm-100.245-2.812H230.53L215.7,162.954H151.821Z" transform="translate(-130.28 -138.149)" fill="#fff"/>
        <path id="Path_44" data-name="Path 44" d="M853.274,42.05a1.276,1.276,0,0,0-1.188.811H836.111a1.282,1.282,0,1,0,0,.929h15.975a1.278,1.278,0,1,0,1.188-1.745Z" transform="translate(-758.203 -36.267)" fill="#fff"/>
        <path id="Path_45" data-name="Path 45" d="M439.154,113.18a1.294,1.294,0,1,0,1.294,1.294h0A1.294,1.294,0,0,0,439.154,113.18Zm0,2.083a.789.789,0,1,1,.789-.789h0a.788.788,0,0,1-.789.789Z" transform="translate(-402.746 -97.641)" fill="#fff"/>
        <path id="Path_46" data-name="Path 46" d="M513.493,113.18a1.294,1.294,0,1,0,.916.379A1.294,1.294,0,0,0,513.493,113.18Zm0,2.083a.788.788,0,1,1,.561-.229A.789.789,0,0,1,513.493,115.263Z" transform="translate(-468.6 -97.641)" fill="#fff"/>
        <path id="Path_47" data-name="Path 47" d="M246.9,117.49h-.937a.824.824,0,0,1,.038.192.79.79,0,0,1-1.579,0,.7.7,0,0,1,.04-.192h-.939a1.78,1.78,0,0,0-.043.373,1.732,1.732,0,0,0,3.462,0A1.786,1.786,0,0,0,246.9,117.49Z" transform="translate(-227.947 -101.36)" fill="#fff"/>
        <path id="Path_48" data-name="Path 48" d="M292.326,117.49h-.943a.756.756,0,0,1,.037.192.789.789,0,1,1-1.578,0,.76.76,0,0,1,.038-.192h-.939a1.794,1.794,0,0,0-.043.373,1.732,1.732,0,1,0,3.463,0A1.789,1.789,0,0,0,292.326,117.49Z" transform="translate(-270.078 -101.36)" fill="#fff"/>
        <path id="Path_49" data-name="Path 49" d="M940.21,144.97l7.611,5.99V135.7Z" transform="translate(-850.154 -117.079)" fill="#fff"/>
        <path id="Path_50" data-name="Path 50" d="M475.209,1.692a1.745,1.745,0,1,0-2.2,1.68V8.377h.891v-5A1.739,1.739,0,0,0,475.209,1.692Z" transform="translate(-432.797 0.06)" fill="#fff"/>
        <path id="Path_51" data-name="Path 51" d="M622.84,59.26a15.911,15.911,0,0,0-3.842,0c-5.6.607-9.88,3.8-9.88,7.655l-.018,6.134h23.617l.021-6.134C632.743,63.062,628.449,59.867,622.84,59.26Zm5.839,9.854a1.54,1.54,0,0,1-1.54,1.54H614.725a1.539,1.539,0,0,1-1.541-1.538h0V66.583a1.54,1.54,0,0,1,1.539-1.54h12.414a1.54,1.54,0,0,1,1.541,1.538h0Z" transform="translate(-556.664 -51.019)" fill="#fff"/>
        <path id="Path_52" data-name="Path 52" d="M649.955,113.18a1.294,1.294,0,1,0,1.293,1.3h0A1.3,1.3,0,0,0,649.955,113.18Z" transform="translate(-589.482 -97.641)" fill="#fff"/>
        <path id="Path_53" data-name="Path 53" d="M725.588,114.474a1.294,1.294,0,1,0-2.588,0" transform="translate(-655.335 -97.641)" fill="#fff"/>
      </g>
      <path id="Path_54" data-name="Path 54" d="M56.991,331.71,50.59,387H32.641q-2.47-12.741-4.35-28.991-.86,6.969-4,28.991H6.436L0,331.71H13.966L15.486,351l1.468,18.647q.8-14.471,3.979-37.937H35.857q.3,2.425,1.568,18.234l1.589,21.036q1.227-20.067,4.011-39.269Z" transform="translate(0 -285.574)" fill="#fff"/>
      <path id="Path_55" data-name="Path 55" d="M450.91,331.71h23.971v11.063h-9.594v10.483h8.981v10.518h-8.981v12.16h10.551V387H450.91Z" transform="translate(-398.429 -285.574)" fill="#fff"/>
      <path id="Path_56" data-name="Path 56" d="M684.865,324.689a18.979,18.979,0,0,1,9.763,2.259,10.33,10.33,0,0,1,4.822,5.38c.807,2.281,1.217,5.959,1.217,10.935v3.842H689.106v-8.2c0-3.979-.31-5.191-.58-5.8a3.308,3.308,0,0,0-3.319-1.877,3.445,3.445,0,0,0-3.568,2.174c-.244.645-.568,1.966-.568,5.961v25.679c0,3.842.327,5.136.574,5.763a3.843,3.843,0,0,0,6.87.012c.274-.686.6-2.031.6-6.312v-5.534h11.557v.748c0,5.545-.383,9.489-1.138,11.723a11.125,11.125,0,0,1-4.8,5.564,17.014,17.014,0,0,1-9.46,2.47,19.913,19.913,0,0,1-9.727-2.109,9.684,9.684,0,0,1-4.779-5.545c-.837-2.543-1.261-6.49-1.261-11.733V343.94a71.691,71.691,0,0,1,.4-8.771,11.226,11.226,0,0,1,2.183-5.113,12.247,12.247,0,0,1,5.067-3.9,19.052,19.052,0,0,1,7.712-1.468m0-1.409a20.315,20.315,0,0,0-8.28,1.59,13.662,13.662,0,0,0-5.634,4.353,12.546,12.546,0,0,0-2.442,5.755,71.862,71.862,0,0,0-.412,8.962v16.152q0,8.126,1.332,12.174a11.121,11.121,0,0,0,5.427,6.334,21.188,21.188,0,0,0,10.415,2.287,18.364,18.364,0,0,0,10.228-2.7,12.428,12.428,0,0,0,5.361-6.294q1.212-3.587,1.212-12.173v-2.156H687.7v6.95a20.148,20.148,0,0,1-.494,5.785,2.448,2.448,0,0,1-4.252,0,17.972,17.972,0,0,1-.478-5.258V339.363a19.242,19.242,0,0,1,.478-5.463,2.124,2.124,0,0,1,2.255-1.264,1.983,1.983,0,0,1,2.032,1.04,17.211,17.211,0,0,1,.46,5.229v9.605h14.375v-5.249q0-7.742-1.3-11.4a11.8,11.8,0,0,0-5.43-6.121,20.265,20.265,0,0,0-10.482-2.458Z" transform="translate(-591.302 -278.299)" fill="#fff"/>
      <path id="Path_57" data-name="Path 57" d="M967.987,324.689a19.545,19.545,0,0,1,7.44,1.346,11.606,11.606,0,0,1,5.088,3.89,11.762,11.762,0,0,1,2.294,5.647,116.419,116.419,0,0,1,.4,11.784v9.468c0,5.489-.129,9.4-.383,11.64a11.781,11.781,0,0,1-7.2,9.607,19.027,19.027,0,0,1-7.631,1.419,19.526,19.526,0,0,1-7.437-1.345,11.886,11.886,0,0,1-7.385-9.538,116.387,116.387,0,0,1-.4-11.783v-9.468c0-5.469.129-9.384.384-11.639a11.779,11.779,0,0,1,7.2-9.608,19.015,19.015,0,0,1,7.632-1.419m-.034,48.249a3.171,3.171,0,0,0,3.221-2.281c.2-.646.475-2.034.475-6.606V338.647c0-3.66-.274-4.837-.524-5.453a3.114,3.114,0,0,0-3.068-1.965,3.341,3.341,0,0,0-2.882,1.483c-.439.639-.847,1.8-.847,5.935v25.815c0,4.476.252,5.774.472,6.405a3.115,3.115,0,0,0,3.156,2.071m.034-49.658a20.322,20.322,0,0,0-8.2,1.537,13.212,13.212,0,0,0-8.04,10.741q-.394,3.465-.394,11.8v9.468a116.2,116.2,0,0,0,.412,11.952,13.3,13.3,0,0,0,8.248,10.667,20.8,20.8,0,0,0,7.972,1.45,20.313,20.313,0,0,0,8.195-1.537,13.211,13.211,0,0,0,8.044-10.737q.391-3.466.391-11.8v-9.468a116.151,116.151,0,0,0-.412-11.952,13.287,13.287,0,0,0-8.245-10.665,20.874,20.874,0,0,0-7.974-1.453Zm-.034,48.25a1.71,1.71,0,0,1-1.826-1.127,25.517,25.517,0,0,1-.394-5.942V338.647q0-4.269.6-5.139a1.969,1.969,0,0,1,1.723-.871,1.7,1.7,0,0,1,1.759,1.077,17.125,17.125,0,0,1,.425,4.933v25.4a27.123,27.123,0,0,1-.412,6.175,1.78,1.78,0,0,1-1.879,1.3Z" transform="translate(-841.897 -278.299)" fill="#fff"/>
      <g id="Group_4" data-name="Group 4" transform="translate(25.701 108.298)">
        <path id="Path_58" data-name="Path 58" d="M267.284,798.3v12.9H266.17V781.16h9.384q4.665,0,7.178,2.333a9,9,0,0,1,.01,12.469q-2.506,2.329-7.187,2.333Zm0-1.111h8.27q4.269,0,6.425-2.126a7.14,7.14,0,0,0,2.156-5.3,7.223,7.223,0,0,0-2.146-5.373q-2.146-2.115-6.434-2.115h-8.27Z" transform="translate(-266.17 -781.16)" fill="#fff"/>
        <path id="Path_59" data-name="Path 59" d="M452.183,810.076h16.232v1.113H451.05V781.16h1.133Z" transform="translate(-425.681 -781.16)" fill="#fff"/>
        <path id="Path_60" data-name="Path 60" d="M618.038,802.219h-14.66l-3.362,8.97H598.8l11.219-30.029h1.361l11.241,30.029h-1.216Zm-14.25-1.117h13.839l-6.287-16.808-.573-1.754h-.124l-.563,1.754Z" transform="translate(-553.157 -781.16)" fill="#fff"/>
        <path id="Path_61" data-name="Path 61" d="M780.062,797.846l.536,1.029.556-1.029,9.962-16.686h1.361L781.2,799.782v11.407h-1.135V799.782L768.78,781.16h1.361Z" transform="translate(-699.813 -781.16)" fill="#fff"/>
      </g>
      <path id="Path_62" data-name="Path 62" d="M403.251,157.17v4.04a2.451,2.451,0,1,1-4.9,0v-4.04" transform="translate(-350.941 -135.414)" fill="#fff"/>
      <path id="Path_63" data-name="Path 63" d="M539.731,157.17v4.04a2.451,2.451,0,0,1-4.9,0v-4.04" transform="translate(-471.177 -135.414)" fill="#fff"/>
      <path id="Path_64" data-name="Path 64" d="M614.121,157.17v4.04a2.451,2.451,0,1,1-4.9,0v-4.04" transform="translate(-536.714 -135.414)" fill="#fff"/>
      <path id="Path_65" data-name="Path 65" d="M750.582,157.17v4.04a2.451,2.451,0,1,1-4.9,0v-4.04" transform="translate(-656.933 -135.414)" fill="#fff"/>
      <path id="Path_66" data-name="Path 66" d="M238.172,202.17l2.85,2.858a2.451,2.451,0,1,1-3.466,3.466h0l-2.856-2.86" transform="translate(-206.826 -174.186)" fill="#fff"/>
      <path id="Path_67" data-name="Path 67" d="M909.2,201.65l-2.857,2.858a2.451,2.451,0,0,0,3.467,3.462l2.856-2.858" transform="translate(-798.102 -173.738)" fill="#fff"/>
      <path id="Path_68" data-name="Path 68" d="M186.82,161.4v5.918L204.355,152.9h3.406v-2.79L191.7,152.434Z" transform="translate(-164.968 -129.323)" fill="#fff"/>
      <path id="Path_69" data-name="Path 69" d="M864.011,161.4v5.918L846.476,152.9H843.07v-2.79l16.061,2.324Z" transform="translate(-744.456 -129.323)" fill="#fff"/>
    </g>
  </g>
</svg>
